<svg width="101" height="87" viewBox="0 0 101 87" fill="none" xmlns="http://www.w3.org/2000/svg">
<g id="Chambers Logo" clip-path="url(#clip0_2244_6271)">
<g id="Group">
<path id="Vector" d="M90.5049 51.2043C88.719 51.1858 87.1802 50.8397 85.7164 50.143C85.4012 49.993 85.31 49.8419 85.407 49.482C86.5164 45.3647 90.2521 42.2535 94.5154 41.8774C96.4594 41.7055 98.2938 42.0504 100.062 42.8487C100.431 43.0149 100.521 43.2075 100.411 43.602C99.2819 47.6881 95.5659 50.7775 91.3142 51.1408C90.9898 51.1685 90.6642 51.1916 90.5049 51.2043Z" fill="white"/>
<path id="Vector_2" d="M28.3188 61.9916C30.2028 62.0297 31.9621 62.4888 33.6026 63.4198C33.9316 63.6067 34.0066 63.7786 33.8773 64.1489C32.5659 67.9085 28.8972 70.6956 24.8971 70.9909C22.7026 71.1535 20.6685 70.6921 18.7533 69.6239C18.4197 69.437 18.3389 69.2605 18.4843 68.8994C20.0809 64.9322 22.9865 62.6526 27.229 62.0828C27.5892 62.0343 27.9552 62.0205 28.3176 61.9905L28.3188 61.9916Z" fill="white"/>
<path id="Vector_3" d="M77.519 58.5816C81.4348 52.8367 90.0064 52.7098 94.0999 57.9714C90.3804 63.5421 81.81 63.9955 77.519 58.5816Z" fill="white"/>
<path id="Vector_4" d="M6.88574 57.9782C10.9955 52.7455 19.4689 52.8032 23.4736 58.5481C19.6952 63.6228 11.0336 63.9458 6.88574 57.9782Z" fill="white"/>
<path id="Vector_5" d="M82.6447 69.347C76.8934 73.1273 68.9291 70.2318 67.022 63.707C72.33 60.0859 80.4675 62.4138 82.6447 69.347Z" fill="white"/>
<path id="Vector_6" d="M89.3427 39.0419C88.276 32.2564 93.7884 26.3419 100.487 26.9152C100.641 26.9279 100.882 27.1425 100.903 27.289C101.686 32.8159 97.6072 38.1652 92.0487 38.8919C91.1632 39.0073 90.2605 38.9946 89.3415 39.0419H89.3427Z" fill="white"/>
<path id="Vector_7" d="M15.663 49.9007C9.94518 53.1654 2.09629 50.0542 0.507812 43.1487C5.96013 39.8771 14.0838 42.8176 15.663 49.9007Z" fill="white"/>
<path id="Vector_8" d="M0.15339 26.9382C2.78662 26.6764 5.19473 27.2232 7.32232 28.7517C10.6216 31.1224 12.0462 34.3894 11.7738 38.4212C11.7484 38.795 11.6329 38.9876 11.1919 39.0107C5.83774 39.2922 1.27664 35.8014 0.206494 30.5594C-0.0370886 29.3689 -0.0774932 28.1668 0.154545 26.9371L0.15339 26.9382Z" fill="white"/>
<path id="Vector_9" d="M96.1803 18.1478C96.1318 22.2858 93.5702 25.8216 89.7929 27.132C89.3496 27.2855 89.1499 27.1932 88.9421 26.7952C86.2754 21.7009 88.9005 15.2661 94.3656 13.5022C94.7327 13.3834 94.8966 13.4365 95.0778 13.7849C95.8109 15.1946 96.1434 16.6942 96.1803 18.1478Z" fill="white"/>
<path id="Vector_10" d="M13.0886 22.5003C13.1025 24.0277 12.7192 25.4558 12.045 26.8217C11.8488 27.2208 11.641 27.2739 11.2335 27.1366C5.74539 25.2805 3.1999 18.8491 5.93933 13.7548C6.11365 13.4295 6.27411 13.3868 6.61698 13.4953C10.4647 14.7169 13.1002 18.3727 13.0875 22.4992L13.0886 22.5003Z" fill="white"/>
<path id="Vector_11" d="M85.1266 4.29187C89.3391 7.45736 89.5215 13.8922 85.5191 17.2907C85.2767 17.4972 85.1024 17.5895 84.7895 17.3403C80.7595 14.1379 80.8541 7.40891 84.9869 4.34724C85.0158 4.32532 85.0562 4.31956 85.1266 4.29187Z" fill="white"/>
<path id="Vector_12" d="M15.9088 17.5525C14.3515 16.362 13.3137 14.8197 12.8831 12.9277C12.1489 9.70227 13.0285 6.93708 15.4193 4.64256C15.7957 4.28148 16.045 4.25726 16.4595 4.62756C20.2771 8.03646 20.1282 14.2106 16.1293 17.406C16.0704 17.4533 16.0035 17.4902 15.9077 17.5525H15.9088Z" fill="white"/>
</g>
<path id="Vector_13" d="M30.7895 1.38712C31.1047 1.51979 31.4117 1.69398 31.7269 1.93393C31.81 1.99968 31.8851 2.03314 31.9428 2.03314C32.0917 2.03314 32.1921 1.80127 32.2418 1.35367H32.4992C32.4738 1.86702 32.4576 2.7876 32.4576 4.09694H32.2002C32.1344 3.53282 32.0421 3.11061 31.9266 2.82105C31.81 2.52227 31.6195 2.26617 31.3459 2.05044C31.1555 1.86817 30.9396 1.73551 30.6822 1.6363C30.4328 1.54517 30.1684 1.49556 29.8937 1.49556C29.1306 1.49556 28.5673 1.86817 28.1851 2.61456C27.8123 3.36094 27.6299 4.28843 27.6299 5.40743C27.6299 6.52643 27.8203 7.43777 28.2105 8.17608C28.6007 8.91439 29.1722 9.287 29.9352 9.287C30.1927 9.287 30.449 9.23739 30.7064 9.14626C30.9557 9.05513 31.1705 8.91439 31.3448 8.73212C31.6265 8.52447 31.8181 8.25914 31.9255 7.93613C32.0328 7.6212 32.1159 7.14822 32.1829 6.54373H32.4403C32.4403 7.91998 32.4565 8.86478 32.4819 9.40351H32.2245C32.1991 9.16356 32.1667 8.98937 32.1333 8.89016C32.0917 8.79095 32.034 8.74135 31.9589 8.74135C31.9012 8.74135 31.8262 8.76673 31.7188 8.83248C31.3783 9.07243 31.0469 9.2547 30.7399 9.38736C30.4328 9.51195 30.0599 9.57771 29.6201 9.57771C28.8155 9.57771 28.1193 9.41159 27.5133 9.08858C26.9084 8.76557 26.4431 8.29259 26.1118 7.6708C25.7805 7.04901 25.6143 6.31993 25.6143 5.46626C25.6143 4.6126 25.7886 3.89967 26.128 3.25365C26.4685 2.61571 26.9407 2.11043 27.5548 1.76204C28.169 1.41365 28.857 1.23138 29.6443 1.23138C30.0842 1.19793 30.4732 1.25676 30.7884 1.38943L30.7895 1.38712ZM35.1855 4.41187C35.5261 3.70702 36.1391 3.35978 37.0349 3.35978C37.6237 3.35978 38.0381 3.5086 38.2875 3.80738C38.4202 3.94812 38.5114 4.13847 38.5691 4.37149C38.6269 4.60337 38.6523 4.90215 38.6523 5.28284V8.34104C38.6523 8.6479 38.7019 8.86363 38.8104 8.97899C38.9178 9.0955 39.1094 9.15318 39.383 9.15318V9.39313C38.5945 9.36775 37.1353 9.36775 36.4058 9.39313V9.15318C36.6378 9.15318 36.7959 9.0955 36.8791 8.97899C36.9703 8.86247 37.0118 8.6479 37.0118 8.34104V4.80986C37.0118 4.50301 36.9622 4.26306 36.8629 4.10501C36.7636 3.94697 36.5731 3.86506 36.3076 3.86506C35.9925 3.86506 35.727 3.98965 35.5111 4.2296C35.2952 4.46955 35.1878 4.79371 35.1878 5.16633V8.33182C35.1878 8.63867 35.2294 8.8544 35.3206 8.96976C35.4118 9.08627 35.57 9.14395 35.7939 9.14395V9.3839C35.0643 9.35852 33.604 9.35852 32.8167 9.3839V9.14395C33.0822 9.14395 33.2727 9.08627 33.3812 8.96976C33.4897 8.85324 33.5474 8.63867 33.5474 8.33182V1.86702C33.5474 1.51863 33.4897 1.26253 33.3812 1.10449C33.2727 0.946445 33.0822 0.864539 32.8167 0.864539V0.624589C33.0568 0.649969 33.29 0.658044 33.522 0.658044C34.1858 0.658044 34.733 0.608439 35.1809 0.5L35.189 4.41187H35.1855ZM54.245 8.96976C54.3523 9.08627 54.544 9.14395 54.8095 9.14395V9.3839C54.0545 9.35852 52.6288 9.35852 51.9061 9.3839V9.14395C52.1047 9.14395 52.2548 9.08627 52.3286 8.96976C52.4118 8.85324 52.4533 8.63867 52.4533 8.32374V4.80179C52.4533 4.48685 52.4037 4.24691 52.3125 4.08886C52.2213 3.93082 52.0389 3.85699 51.7734 3.85699C51.4917 3.85699 51.2504 3.9735 51.0438 4.20538C50.836 4.44532 50.7125 4.72796 50.679 5.06712V8.32374C50.679 8.6306 50.7286 8.84632 50.8198 8.96168C50.911 9.0782 51.0853 9.13588 51.3335 9.13588V9.37583C50.6039 9.35045 49.2186 9.35045 48.489 9.37583V9.13588C48.6876 9.13588 48.8377 9.0782 48.9116 8.96168C48.9947 8.84517 49.0362 8.6306 49.0362 8.32374V4.79256C49.0362 4.47763 48.9947 4.23768 48.9116 4.07963C48.8284 3.92159 48.6714 3.84776 48.4221 3.84776C48.1231 3.84776 47.8576 3.98042 47.6429 4.22845C47.427 4.47763 47.3196 4.80063 47.3196 5.16517V8.32259C47.3196 8.62945 47.3612 8.84517 47.4443 8.96053C47.5274 9.07704 47.6683 9.13472 47.8668 9.13472V9.37467C47.1949 9.34929 45.7773 9.34929 44.9634 9.37467V9.13472C45.237 9.13472 45.4275 9.07704 45.536 8.96053C45.6446 8.84402 45.6942 8.62945 45.6942 8.32259V4.75103C45.6942 4.40264 45.6446 4.14654 45.536 3.9885C45.4275 3.83045 45.237 3.74855 44.9634 3.74855V3.5086C45.2036 3.53398 45.4368 3.54205 45.6688 3.54205C46.3488 3.54205 46.8959 3.49245 47.3277 3.38401V4.4038C47.659 3.69894 48.2478 3.35171 49.0859 3.35171C49.6585 3.35171 50.081 3.50052 50.3384 3.79931C50.4793 3.94812 50.5785 4.18 50.6201 4.47878C50.8106 4.07271 51.0761 3.78316 51.3913 3.60896C51.7064 3.43477 52.0793 3.35171 52.503 3.35171C53.0755 3.35171 53.4981 3.50052 53.7555 3.79931C53.8802 3.93197 53.9633 4.12232 54.0129 4.35419C54.0626 4.59414 54.0961 4.89292 54.0961 5.27361V8.33182C54.0799 8.63867 54.1295 8.8544 54.245 8.96976ZM60.0425 4.11309C60.4234 4.61837 60.615 5.33937 60.615 6.30147C60.615 7.41239 60.3749 8.23261 59.8855 8.76326C59.4041 9.28585 58.7738 9.55118 58.0107 9.55118C57.4877 9.55118 57.0652 9.41851 56.7339 9.15318C56.4603 9.1278 56.1867 9.16126 55.9131 9.24432C55.6395 9.32738 55.4236 9.43466 55.2666 9.5754L55.0923 9.47619C55.142 9.28585 55.1754 9.07012 55.1754 8.84632V1.87625C55.1754 1.52786 55.1177 1.27176 55.0092 1.11372C54.9007 0.955674 54.7102 0.873768 54.4447 0.873768V0.632664C54.6848 0.658044 54.9088 0.666119 55.15 0.666119C55.8138 0.666119 56.361 0.616514 56.8089 0.508075V4.4361C56.9671 4.08771 57.1991 3.8143 57.497 3.64011C57.796 3.44976 58.1527 3.35863 58.5417 3.35863C59.1639 3.35863 59.6615 3.60781 60.0425 4.11309ZM58.5833 8.60522C58.7818 8.14147 58.8903 7.42047 58.8903 6.46644C58.8903 5.51241 58.8072 4.86639 58.6329 4.46032C58.4586 4.05425 58.2104 3.85583 57.886 3.85583C57.6459 3.85583 57.4219 3.93889 57.2222 4.12116C57.0225 4.30343 56.8817 4.53531 56.8159 4.84216V9.01129C57.0652 9.20971 57.3469 9.31815 57.654 9.31815C58.0684 9.31007 58.3836 9.06897 58.5833 8.60522ZM65.7661 7.70195L65.9646 7.7677C65.8157 8.25683 65.5421 8.67905 65.1519 9.02744C64.7617 9.37583 64.2722 9.54079 63.6927 9.54079C62.8881 9.54079 62.2578 9.28354 61.7764 8.77019C61.3031 8.25683 61.063 7.50238 61.063 6.50797C61.063 5.51356 61.3123 4.70143 61.826 4.16269C62.3397 3.62396 63.0035 3.35055 63.8497 3.35055C65.2766 3.35055 65.99 4.18807 65.99 5.87003H62.7969C62.7888 5.98654 62.7807 6.16881 62.7807 6.40068C62.7807 6.89789 62.8558 7.31203 62.9885 7.65234C63.1213 7.98343 63.3118 8.22453 63.5357 8.38142C63.7597 8.53024 63.9998 8.6133 64.2572 8.6133C64.8956 8.6133 65.3851 8.30644 65.7672 7.70195H65.7661ZM63.1121 4.10501C62.9297 4.44532 62.8223 4.95868 62.7715 5.66353H64.5551C64.5712 5.06712 64.5135 4.56991 64.3808 4.18C64.248 3.79008 64.0494 3.59973 63.7839 3.59973C63.5184 3.59973 63.2944 3.76585 63.1121 4.10501ZM70.7427 3.66549C70.9171 3.86391 71.0002 4.12116 71.0002 4.40264C71.0002 4.68412 70.9171 4.916 70.7601 5.09019C70.6031 5.26438 70.3872 5.35552 70.1217 5.35552C69.8562 5.35552 69.6576 5.28976 69.5075 5.1571C69.3586 5.02443 69.2755 4.85024 69.2755 4.63452C69.2755 4.26998 69.4417 3.97119 69.773 3.74739C69.7476 3.73932 69.6899 3.73124 69.6403 3.73124C69.5572 3.73124 69.5075 3.73932 69.4579 3.75662C69.1681 3.79815 68.9268 3.98042 68.7283 4.27921C68.5297 4.57799 68.4293 4.89292 68.4293 5.21593V8.22453C68.4293 8.57292 68.5124 8.81287 68.6867 8.95361C68.861 9.08627 69.1266 9.15203 69.4994 9.15203V9.39198C69.3921 9.39198 69.309 9.3839 69.242 9.37583C68.4709 9.35045 67.0278 9.35045 66.2982 9.37583C66.2405 9.3839 66.1655 9.39198 66.0662 9.39198V9.15203C66.3398 9.15203 66.5303 9.09435 66.6388 8.97783C66.7473 8.86132 66.797 8.64675 66.797 8.33989V4.75103C66.797 4.40264 66.7473 4.14654 66.6388 3.9885C66.5303 3.83045 66.3398 3.74855 66.0662 3.74855V3.5086C66.3063 3.53398 66.5395 3.54205 66.7716 3.54205C67.4515 3.54205 67.9987 3.49245 68.4305 3.38401V4.4361C68.5713 4.11309 68.7791 3.84776 69.0527 3.64818C69.3263 3.44861 69.6334 3.3494 69.9728 3.3494C70.3133 3.35748 70.5696 3.46592 70.7439 3.66434L70.7427 3.66549ZM73.8862 3.46707C74.1264 3.54205 74.3088 3.61588 74.4415 3.70702C74.5246 3.75662 74.5823 3.79008 74.6401 3.79008C74.7059 3.79008 74.7728 3.75662 74.8144 3.68279C74.864 3.60781 74.8975 3.5086 74.9056 3.37593H75.1457C75.1203 3.76585 75.1041 4.42802 75.1041 5.37282H74.864C74.7982 4.87562 74.6481 4.4534 74.4161 4.11309C74.1841 3.77277 73.8435 3.60781 73.4129 3.60781C73.1809 3.60781 72.9985 3.67356 72.8484 3.79815C72.6995 3.93082 72.6244 4.10501 72.6244 4.32881C72.6244 4.58606 72.7076 4.80986 72.8819 4.99213C73.0562 5.18248 73.3298 5.3982 73.7027 5.67161L74.034 5.91156C74.4981 6.25994 74.8386 6.57488 75.0545 6.84828C75.2785 7.12169 75.3858 7.462 75.3858 7.86807C75.3858 8.19915 75.2946 8.48986 75.0961 8.75519C74.9056 9.01244 74.6401 9.21086 74.3168 9.34353C73.9936 9.47619 73.6369 9.54195 73.2386 9.54195C72.8403 9.54195 72.4674 9.45889 72.1765 9.302C71.9364 9.17741 71.7621 9.10358 71.6536 9.06205C71.5705 9.03667 71.5127 9.06205 71.455 9.13703C71.3973 9.21202 71.3557 9.3193 71.3223 9.46004H71.0821C71.1075 9.02859 71.1237 8.27529 71.1237 7.18859H71.3638C71.5127 8.58099 72.0276 9.27662 72.898 9.27662C73.122 9.27662 73.3044 9.21086 73.4626 9.0782C73.6207 8.94553 73.6946 8.73788 73.6946 8.47371C73.6946 8.26606 73.645 8.06764 73.5538 7.90152C73.4626 7.7354 73.3379 7.58659 73.197 7.45392C73.0562 7.32126 72.8403 7.14707 72.5506 6.92327C72.21 6.64986 71.9537 6.43414 71.7713 6.25994C71.5889 6.09382 71.44 5.89541 71.3153 5.67161C71.1907 5.44781 71.1249 5.19055 71.1249 4.90907C71.1249 4.42802 71.3153 4.03926 71.6975 3.75662C72.0796 3.47399 72.5356 3.34248 73.0828 3.34248C73.3818 3.35863 73.638 3.39208 73.8874 3.46707H73.8862ZM44.7337 8.93746C44.6171 9.02052 44.5178 9.05397 44.4347 9.05397C44.3354 9.05397 44.2685 9.02052 44.2362 8.93746C44.2038 8.8544 44.1865 8.73904 44.1865 8.54754V5.45588C44.1865 5.04174 44.1611 4.7095 44.1034 4.46955C44.0457 4.2296 43.9372 4.02195 43.7629 3.85583C43.5805 3.67356 43.3565 3.54897 43.0829 3.46592C42.8093 3.38286 42.4861 3.3494 42.1213 3.3494C41.7565 3.3494 41.4413 3.38286 41.1342 3.44861C40.8353 3.51437 40.579 3.61473 40.3793 3.73009C40.1715 3.86276 40.0145 3.99542 39.9059 4.14423C39.8067 4.29305 39.757 4.47532 39.757 4.68297C39.757 4.93215 39.8321 5.14672 39.9729 5.30476C40.1137 5.47088 40.3215 5.55394 40.5871 5.55394C40.8364 5.55394 41.0511 5.47088 41.2174 5.32206C41.3917 5.17325 41.4748 4.97368 41.4748 4.70835C41.4748 4.50993 41.4171 4.32766 41.3005 4.17769C41.1839 4.02887 41.0188 3.91236 40.8029 3.83738C40.9934 3.65511 41.267 3.56397 41.6318 3.56397C41.9389 3.56397 42.1709 3.64703 42.3198 3.8293C42.4688 4.01157 42.5438 4.25152 42.5438 4.56645V5.45357C42.5438 5.65199 42.4526 5.81811 42.254 5.93463C42.0636 6.05114 41.7565 6.17458 41.342 6.32455C40.9438 6.45721 40.6205 6.58987 40.3712 6.71446C40.1218 6.83905 39.9071 7.01325 39.7247 7.22782C39.5423 7.45162 39.4592 7.7331 39.4592 8.07341C39.4592 8.47948 39.5839 8.81056 39.8159 9.05974C40.056 9.29969 40.4127 9.43235 40.9022 9.43235C41.6318 9.43235 42.1882 9.1255 42.5692 8.51293C42.5773 8.79441 42.6604 9.01821 42.8266 9.18433C42.9929 9.35045 43.2907 9.43351 43.7063 9.43351C44.1542 9.43351 44.5352 9.31699 44.8503 9.09319L44.7337 8.93515V8.93746ZM42.5438 8.27414C42.3198 8.58099 42.0705 8.73789 41.7726 8.73789C41.5648 8.73789 41.3917 8.6629 41.2589 8.51409C41.1262 8.36527 41.0684 8.14147 41.0684 7.82654C41.0684 7.47815 41.1516 7.20475 41.3005 7.00633C41.4494 6.81598 41.6734 6.62564 41.9724 6.43414C42.2713 6.25187 42.4618 6.08575 42.553 5.93693L42.5449 8.27414H42.5438Z" fill="white"/>
<g id="Group_2">
<path id="Vector_14" d="M35.4948 18.0927L34.5689 16.2481H33.5184V17.4801L33.5254 18.0927H32.6445L32.6515 17.4801V14.0447L32.6445 13.4321H34.6798C35.4163 13.4321 36.4414 13.6213 36.4414 14.8211C36.4414 15.5963 35.9589 15.9816 35.4105 16.1443L36.5199 18.08V18.0927H35.4959H35.4948ZM33.5184 15.5836H34.4835C34.9788 15.5836 35.5467 15.4994 35.5467 14.8407C35.5467 14.1427 34.9788 14.0978 34.4708 14.0978H33.5184V15.5836Z" fill="white"/>
<path id="Vector_15" d="M37.6475 18.0924H36.8325L38.5284 13.4319H39.5131L41.1893 18.0924H40.2634L39.8594 16.8673H38.0654L37.6475 18.0924ZM38.2871 16.2086H39.6378L38.9786 14.2013H38.9659L38.2871 16.2086Z" fill="white"/>
<path id="Vector_16" d="M44.9193 13.4319H45.7217L45.7147 14.0444V17.4799L45.7217 18.0924H45.0105L42.5967 14.807H42.584L42.5967 15.2177V17.4799L42.6036 18.0924H41.8013L41.8082 17.4799V14.0444L41.8013 13.4319H42.584L44.9251 16.6066H44.9378L44.9251 16.1959V14.0444L44.9182 13.4319H44.9193Z" fill="white"/>
<path id="Vector_17" d="M46.9083 17.4799V14.0444L46.9014 13.4319H47.7753L47.7683 14.0444V15.6803H47.781L49.8163 13.4319H50.8148V13.4446L49.2564 15.1069L50.9915 18.0798V18.0924H49.9998L48.6688 15.7333L47.7683 16.6977V17.4799L47.7753 18.0924H46.9014L46.9083 17.4799Z" fill="white"/>
<path id="Vector_18" d="M54.4886 16.0714H52.4072V17.4073H54.9769V18.0913H51.5391L51.546 17.4788V14.0434L51.5391 13.4308H54.9573V14.1149H52.4072V15.3861H54.4886V16.0702V16.0714Z" fill="white"/>
<path id="Vector_19" d="M55.793 13.4319H57.4623C58.6363 13.4319 59.9477 13.921 59.9477 15.7714C59.9477 17.6218 58.6305 18.0924 57.4623 18.0924H55.793L55.7999 17.4799V14.0444L55.793 13.4319ZM56.6599 17.428H57.4034C58.4147 17.428 59.0403 16.9977 59.0403 15.8048C59.0403 14.612 58.4204 14.0975 57.4034 14.0975H56.6599V17.428Z" fill="white"/>
<path id="Vector_20" d="M62.3799 18.0924L62.3868 17.4799V14.0444L62.3799 13.4319H63.2538L63.2469 14.0444V17.4799L63.2538 18.0924H62.3799Z" fill="white"/>
<path id="Vector_21" d="M67.5517 13.4319H68.354L68.3471 14.0444V17.4799L68.354 18.0924H67.6429L65.229 14.807H65.2163L65.229 15.2177V17.4799L65.2359 18.0924H64.4336L64.4405 17.4799V14.0444L64.4336 13.4319H65.2163L67.5586 16.6066H67.5713L67.5586 16.1959V14.0444L67.5517 13.4319Z" fill="white"/>
</g>
<g id="Group_3">
<path id="Vector_22" d="M42.4651 72.9406H37.3384C37.3453 72.3188 37.4954 71.7755 37.7886 71.3117C38.0818 70.8468 38.4824 70.4431 38.9904 70.1004C39.2328 69.9216 39.4868 69.7486 39.7523 69.5802C40.0166 69.4129 40.2602 69.2318 40.4819 69.0391C40.7035 68.8465 40.8859 68.6377 41.0291 68.4116C41.1722 68.1866 41.2472 67.927 41.2542 67.634C41.2542 67.4979 41.238 67.3537 41.2057 67.2003C41.1734 67.0468 41.111 66.9038 41.0175 66.7711C40.924 66.6385 40.7959 66.5289 40.6319 66.4389C40.4669 66.3501 40.2533 66.3051 39.9889 66.3051C39.7453 66.3051 39.5433 66.3535 39.3829 66.4493C39.2224 66.5462 39.0931 66.6777 38.9973 66.8461C38.9003 67.0145 38.8287 67.213 38.7826 67.4414C38.7364 67.6698 38.7087 67.9167 38.7017 68.1808H37.4792C37.4792 67.7667 37.5346 67.3825 37.6455 67.0284C37.7563 66.6742 37.9225 66.3697 38.1442 66.1124C38.3658 65.8552 38.6359 65.6533 38.9546 65.5068C39.2732 65.3603 39.6426 65.2876 40.0651 65.2876C40.5223 65.2876 40.9055 65.3626 41.2126 65.5126C41.5197 65.6625 41.769 65.8517 41.9584 66.0801C42.1477 66.3085 42.2816 66.5566 42.3601 66.8254C42.4386 67.093 42.4778 67.3491 42.4778 67.5913C42.4778 67.8913 42.4317 68.1635 42.3382 68.4058C42.2447 68.6492 42.12 68.8718 41.963 69.076C41.806 69.2802 41.627 69.4671 41.4262 69.639C41.2265 69.8109 41.0187 69.9712 40.8039 70.1212C40.5892 70.2712 40.3745 70.4142 40.1598 70.5503C39.9451 70.6865 39.7465 70.8214 39.5641 70.9576C39.3817 71.0937 39.2224 71.2344 39.0873 71.3809C38.9511 71.5274 38.8587 71.6832 38.808 71.847H42.4651V72.9406Z" fill="white"/>
<path id="Vector_23" d="M46.9386 65.2875C47.4754 65.2875 47.9129 65.4109 48.2523 65.6578C48.5917 65.9047 48.8561 66.2184 49.0465 66.6014C49.2359 66.9833 49.3652 67.4032 49.4333 67.8612C49.5014 68.318 49.5349 68.7621 49.5349 69.1901C49.5349 69.6181 49.5014 70.0622 49.4333 70.5191C49.3652 70.9759 49.237 71.3958 49.0465 71.7788C48.8572 72.1606 48.5929 72.4756 48.2523 72.7225C47.9129 72.9693 47.4742 73.0928 46.9386 73.0928C46.4029 73.0928 45.9642 72.9693 45.6248 72.7225C45.2854 72.4756 45.0199 72.1618 44.8306 71.7788C44.6413 71.397 44.512 70.9771 44.4439 70.5191C44.3758 70.0622 44.3423 69.6193 44.3423 69.1901C44.3423 68.761 44.3758 68.318 44.4439 67.8612C44.512 67.4043 44.6401 66.9844 44.8306 66.6014C45.0199 66.2196 45.2843 65.9047 45.6248 65.6578C45.9642 65.4109 46.4029 65.2875 46.9386 65.2875ZM46.9386 72.0718C47.2029 72.0718 47.4246 71.9945 47.6035 71.8411C47.7824 71.6877 47.9233 71.48 48.0272 71.2193C48.1311 70.9586 48.2038 70.6529 48.2465 70.3033C48.2892 69.9538 48.3112 69.5823 48.3112 69.189C48.3112 68.7956 48.2892 68.4264 48.2465 68.0792C48.2038 67.7331 48.1299 67.4274 48.0272 67.1632C47.9233 66.8991 47.7824 66.6903 47.6035 66.5357C47.4246 66.3822 47.2029 66.305 46.9386 66.305C46.6742 66.305 46.4433 66.3822 46.2679 66.5357C46.0924 66.6891 45.9527 66.8979 45.85 67.1632C45.7461 67.4274 45.6733 67.7331 45.6306 68.0792C45.5879 68.4253 45.566 68.7956 45.566 69.189C45.566 69.5823 45.5879 69.9538 45.6306 70.3033C45.6733 70.654 45.7472 70.9586 45.85 71.2193C45.9539 71.48 46.0924 71.6877 46.2679 71.8411C46.4433 71.9945 46.6661 72.0718 46.9386 72.0718Z" fill="white"/>
<path id="Vector_24" d="M56.5389 72.9405H51.4121C51.419 72.3187 51.5691 71.7753 51.8623 71.3116C52.1556 70.8467 52.5561 70.4429 53.0641 70.1003C53.3077 69.9215 53.5605 69.7485 53.826 69.58C54.0904 69.4128 54.3339 69.2316 54.5556 69.039C54.7772 68.8463 54.9596 68.6375 55.1028 68.4114C55.2459 68.1865 55.321 67.9269 55.3279 67.6339C55.3279 67.4978 55.3117 67.3536 55.2794 67.2002C55.2471 67.0467 55.1847 66.9037 55.0912 66.771C54.9977 66.6383 54.8696 66.5288 54.7057 66.4388C54.5406 66.3499 54.327 66.305 54.0615 66.305C53.8179 66.305 53.6159 66.3534 53.4554 66.4492C53.295 66.5449 53.1657 66.6776 53.0687 66.846C52.9717 67.0144 52.9002 67.2128 52.854 67.4413C52.8078 67.6697 52.7801 67.9165 52.7732 68.1807H51.5506C51.5506 67.7666 51.606 67.3824 51.7169 67.0283C51.8277 66.6741 51.9939 66.3696 52.2156 66.1123C52.4372 65.8551 52.7074 65.6532 53.026 65.5067C53.3446 65.3602 53.714 65.2875 54.1365 65.2875C54.5937 65.2875 54.977 65.3625 55.284 65.5124C55.5911 65.6624 55.8405 65.8516 56.0298 66.08C56.2191 66.3084 56.353 66.5564 56.4315 66.8252C56.51 67.094 56.5493 67.349 56.5493 67.5912C56.5493 67.8912 56.5031 68.1634 56.4096 68.4057C56.3161 68.6491 56.1914 68.8717 56.0344 69.0759C55.8774 69.2801 55.6985 69.467 55.4976 69.6389C55.2967 69.8108 55.0901 69.9711 54.8754 70.1211C54.6606 70.271 54.4459 70.4141 54.2324 70.5502C54.0176 70.6863 53.8191 70.8213 53.6367 70.9574C53.4543 71.0936 53.295 71.2343 53.1599 71.3808C53.0237 71.5273 52.9313 71.6831 52.8805 71.8469H56.5377V72.9405H56.5389Z" fill="white"/>
<path id="Vector_25" d="M60.4754 68.5465C60.6751 68.5534 60.876 68.5395 61.0757 68.5038C61.2754 68.468 61.4543 68.4057 61.6125 68.3157C61.7695 68.2269 61.8965 68.1035 61.9934 67.9454C62.0904 67.7885 62.1377 67.5959 62.1377 67.3663C62.1377 67.0445 62.0292 66.7872 61.811 66.5946C61.5929 66.4019 61.3123 66.305 60.9695 66.305C60.7547 66.305 60.5689 66.3477 60.4119 66.4331C60.2549 66.5184 60.1244 66.6349 60.0205 66.7814C59.9166 66.928 59.8404 67.0929 59.7897 67.274C59.74 67.4563 59.7181 67.6443 59.725 67.837H58.5025C58.5163 67.4725 58.5844 67.1345 58.7068 66.8241C58.828 66.5138 58.9943 66.2439 59.2055 66.0155C59.4168 65.787 59.6719 65.6082 59.9721 65.479C60.2722 65.351 60.6116 65.2864 60.9914 65.2864C61.2846 65.2864 61.5721 65.3291 61.8549 65.4156C62.1377 65.5009 62.3917 65.6267 62.6168 65.7905C62.8419 65.9543 63.022 66.1643 63.1582 66.4181C63.2945 66.6719 63.3626 66.9626 63.3626 67.2913C63.3626 67.6697 63.2772 68.0008 63.1051 68.2823C62.9331 68.5649 62.6653 68.7703 62.3005 68.8983V68.9202C62.73 69.0056 63.0636 69.219 63.3037 69.5582C63.5427 69.8973 63.6627 70.3103 63.6627 70.796C63.6627 71.1536 63.5911 71.4732 63.448 71.7558C63.3049 72.0384 63.1121 72.2772 62.8685 72.4733C62.6249 72.6706 62.3432 72.8217 62.0211 72.929C61.6991 73.0363 61.3597 73.0894 61.0018 73.0894C60.5654 73.0894 60.1845 73.0271 59.8589 72.9013C59.5334 72.7767 59.2621 72.5991 59.0439 72.3707C58.8257 72.1422 58.6595 71.8665 58.5452 71.5458C58.4309 71.224 58.3697 70.8675 58.3628 70.4741H59.5853C59.5715 70.931 59.6834 71.3116 59.9236 71.6162C60.1625 71.9196 60.5227 72.0719 61.0018 72.0719C61.4093 72.0719 61.751 71.9554 62.0258 71.7235C62.3005 71.4916 62.439 71.1605 62.439 70.7325C62.439 70.4395 62.3813 70.2077 62.267 70.0358C62.1527 69.8639 62.0027 69.7335 61.8168 69.6447C61.6309 69.5559 61.422 69.5005 61.1888 69.4786C60.9568 69.4567 60.719 69.4497 60.4754 69.4567V68.5453V68.5465Z" fill="white"/>
</g>
<g id="Group_4">
<path id="Vector_26" d="M40.6449 31.8388V38.3163C40.6449 39.1457 40.8042 39.8517 41.3687 40.3985C41.8455 40.875 42.6051 41.2107 43.629 41.2107C44.653 41.2107 45.378 40.875 45.8363 40.417C46.3835 39.8702 46.5601 39.1469 46.5601 38.3163V31.8388L46.5428 30.1626H48.8031L48.7858 31.8388V38.1917C48.7858 39.5864 48.4857 40.8392 47.5321 41.7921C46.7021 42.6215 45.3595 43.1153 43.5586 43.1153C41.7577 43.1153 40.3447 42.6031 39.5147 41.7921C38.5081 40.8034 38.2956 39.516 38.2956 37.9979V31.8388L38.2783 30.1626H40.6622L40.6449 31.8388Z" fill="white"/>
<path id="Vector_27" d="M51.6662 41.1218V31.8215L51.6489 30.1626H54.0155L53.9982 31.8215V36.2513H54.034L59.544 30.1626H62.2465V30.1984L58.0259 34.6986L62.7233 42.7461V42.7819H60.0392L56.4363 36.3932L53.9993 39.005V41.123L54.0166 42.7819H51.6501L51.6674 41.123L51.6662 41.1218Z" fill="white"/>
</g>
<g id="Group_5">
<path id="Vector_28" d="M3.7417 85.6026L4.37547 84.8573C4.81415 85.2749 5.40291 85.5564 5.97319 85.5564C6.66353 85.5564 7.04218 85.2438 7.04218 84.7662C7.04218 84.2621 6.64621 84.1006 6.08978 83.8652L5.25168 83.5019C4.64792 83.2504 4.01183 82.7728 4.01183 81.8776C4.01183 80.9016 4.87418 80.1506 6.07016 80.1506C6.7859 80.1506 7.4797 80.4471 7.95994 80.9316L7.4012 81.6215C7.01101 81.2892 6.59542 81.0954 6.07016 81.0954C5.48949 81.0954 5.10968 81.3677 5.10968 81.8153C5.10968 82.2963 5.57607 82.4751 6.08517 82.6828L6.91173 83.0289C7.64132 83.3323 8.15157 83.7937 8.15157 84.6808C8.15157 85.6741 7.32617 86.5024 5.9501 86.5024C5.12123 86.5024 4.32237 86.1759 3.7417 85.6049V85.6026Z" fill="white"/>
<path id="Vector_29" d="M8.87305 84.0901C8.87305 82.557 9.91549 81.6733 11.063 81.6733C12.2105 81.6733 13.2529 82.5581 13.2529 84.0901C13.2529 85.6221 12.2105 86.5 11.063 86.5C9.91549 86.5 8.87305 85.6152 8.87305 84.0901ZM12.1424 84.0901C12.1424 83.1684 11.7372 82.5535 11.063 82.5535C10.3888 82.5535 9.9836 83.1684 9.9836 84.0901C9.9836 85.0119 10.3888 85.6187 11.063 85.6187C11.7372 85.6187 12.1424 85.0119 12.1424 84.0901Z" fill="white"/>
<path id="Vector_30" d="M14.3242 81.7864H15.2097L15.2916 82.4082H15.3216C15.7338 82.0067 16.2025 81.6733 16.8328 81.6733C17.8186 81.6733 18.2504 82.3401 18.2504 83.5018V86.387H17.1699V83.6402C17.1699 82.8835 16.9528 82.5985 16.4541 82.5985C16.0489 82.5985 15.7834 82.7969 15.4036 83.1719V86.387H14.3242V81.7852V81.7864Z" fill="white"/>
<path id="Vector_31" d="M19.5732 81.7864H20.4587L20.5406 82.4082H20.5707C20.9828 82.0067 21.4515 81.6733 22.0818 81.6733C23.0677 81.6733 23.4994 82.3401 23.4994 83.5018V86.387H22.4189V83.6402C22.4189 82.8835 22.2019 82.5985 21.7031 82.5985C21.2979 82.5985 21.0324 82.7969 20.6526 83.1719V86.387H19.5732V81.7852V81.7864Z" fill="white"/>
<path id="Vector_32" d="M26.792 80.2614H28.0214L29.1054 83.255C29.2405 83.6449 29.364 84.0567 29.4991 84.4582H29.5372C29.6723 84.0567 29.7889 83.6449 29.9239 83.255L30.9848 80.2614H32.2143V86.3881H31.2169V83.5849C31.2169 83.0185 31.3035 82.204 31.3554 81.6365H31.3185L30.8232 83.06L29.8143 85.8125H29.1689L28.1565 83.06L27.6693 81.6365H27.6324C27.6844 82.204 27.7709 83.0196 27.7709 83.5849V86.3881H26.792V80.2614Z" fill="white"/>
<path id="Vector_33" d="M33.4355 85.1515C33.4355 84.1663 34.2529 83.6529 36.1427 83.4499C36.1276 82.955 35.9291 82.5432 35.3069 82.5432C34.8497 82.5432 34.418 82.7496 34.0128 82.9965L33.6156 82.2767C34.1213 81.9583 34.7747 81.6733 35.5054 81.6733C36.6564 81.6733 37.2232 82.3817 37.2232 83.6633V86.3881H36.3378L36.2558 85.8782H36.2258C35.8136 86.2301 35.3403 86.5 34.7966 86.5C33.9908 86.5 33.4355 85.9532 33.4355 85.1515ZM36.1427 85.1549V84.1201C34.8936 84.277 34.478 84.6035 34.478 85.0684C34.478 85.4745 34.755 85.6533 35.1418 85.6533C35.5285 85.6533 35.8021 85.4698 36.1427 85.1549Z" fill="white"/>
<path id="Vector_34" d="M38.216 84.0901C38.216 82.557 39.3 81.6733 40.526 81.6733C41.1113 81.6733 41.5384 81.8983 41.872 82.1902L41.3468 82.8904C41.1032 82.677 40.87 82.5535 40.5814 82.5535C39.8391 82.5535 39.3254 83.1684 39.3254 84.0901C39.3254 85.0119 39.8322 85.6187 40.5479 85.6187C40.9081 85.6187 41.2383 85.4422 41.5003 85.2218L41.939 85.9336C41.5072 86.3154 40.9601 86.5 40.4348 86.5C39.1788 86.5 38.2148 85.6152 38.2148 84.0901H38.216Z" fill="white"/>
<path id="Vector_35" d="M42.8511 81.7864H43.7365L43.8185 82.414H43.8485C44.2387 82.0079 44.6843 81.6733 45.2627 81.6733C45.938 81.6733 46.3224 81.9802 46.5337 82.4982C46.9747 82.0298 47.4295 81.6733 48.0148 81.6733C48.9857 81.6733 49.4359 82.3401 49.4359 83.5018V86.387H48.3565V83.6402C48.3565 82.8835 48.1314 82.5985 47.6477 82.5985C47.3556 82.5985 47.0405 82.7854 46.6837 83.1719V86.387H45.6032V83.6402C45.6032 82.8835 45.3781 82.5985 44.8944 82.5985C44.6093 82.5985 44.2872 82.7854 43.9305 83.1719V86.387H42.8511V81.7852V81.7864Z" fill="white"/>
<path id="Vector_36" d="M50.6309 80.3698C50.6309 80.0064 50.916 79.7595 51.2981 79.7595C51.6802 79.7595 51.9654 80.0064 51.9654 80.3698C51.9654 80.7332 51.6802 80.98 51.2981 80.98C50.916 80.98 50.6309 80.7251 50.6309 80.3698ZM50.7544 81.7864H51.8338V86.3881H50.7544V81.7864Z" fill="white"/>
<path id="Vector_37" d="M53.2109 85.2034V79.7699H54.2915V85.2599C54.2915 85.5264 54.4115 85.6198 54.5235 85.6198C54.572 85.6198 54.6101 85.6198 54.6921 85.6014L54.8271 86.4066C54.6955 86.4596 54.5154 86.5 54.2568 86.5C53.4915 86.5 53.2109 86.0051 53.2109 85.2034Z" fill="white"/>
<path id="Vector_38" d="M55.7505 85.2034V79.7699H56.831V85.2599C56.831 85.5264 56.9511 85.6198 57.0631 85.6198C57.1115 85.6198 57.1496 85.6198 57.2316 85.6014L57.3667 86.4066C57.2351 86.4596 57.055 86.5 56.7964 86.5C56.031 86.5 55.7505 86.0051 55.7505 85.2034Z" fill="white"/>
<path id="Vector_39" d="M58.0444 85.1515C58.0444 84.1663 58.8618 83.6529 60.7515 83.4499C60.7365 82.955 60.538 82.5432 59.9157 82.5432C59.4586 82.5432 59.0268 82.7496 58.6216 82.9965L58.2245 82.2767C58.7313 81.9583 59.3836 81.6733 60.1143 81.6733C61.2653 81.6733 61.8321 82.3817 61.8321 83.6633V86.3881H60.9466L60.8647 85.8782H60.8347C60.4225 86.2301 59.9492 86.5 59.4055 86.5C58.5997 86.5 58.0444 85.9532 58.0444 85.1515ZM60.7515 85.1549V84.1201C59.5025 84.277 59.0869 84.6035 59.0869 85.0684C59.0869 85.4745 59.3639 85.6533 59.7507 85.6533C60.1374 85.6533 60.411 85.4698 60.7515 85.1549Z" fill="white"/>
<path id="Vector_40" d="M63.1284 81.7864H64.0139L64.0958 82.4082H64.1258C64.538 82.0067 65.0067 81.6733 65.637 81.6733C66.6228 81.6733 67.0546 82.3401 67.0546 83.5018V86.387H65.9741V83.6402C65.9741 82.8835 65.757 82.5985 65.2583 82.5985C64.8531 82.5985 64.5876 82.7969 64.209 83.1719V86.387H63.1284V81.7852V81.7864Z" fill="white"/>
<path id="Vector_41" d="M69.7363 80.2614H70.8538L71.386 83.3565C71.4853 84.0083 71.5903 84.66 71.6896 85.313H71.7265C71.8535 84.6612 71.9886 84.0036 72.1237 83.3565L72.8775 80.2614H73.823L74.5768 83.3565C74.7119 83.9921 74.8469 84.6543 74.982 85.313H75.0201C75.1194 84.6554 75.2175 83.9979 75.3168 83.3565L75.849 80.2614H76.8914L75.7139 86.3881H74.3679L73.6071 83.1615C73.5055 82.6862 73.4155 82.2167 73.337 81.753H73.2989C73.2146 82.2179 73.1222 82.6862 73.0218 83.1615L72.2795 86.3881H70.9554L69.7363 80.2614Z" fill="white"/>
<path id="Vector_42" d="M77.375 85.1515C77.375 84.1663 78.1923 83.6529 80.0821 83.4499C80.0671 82.955 79.8685 82.5432 79.2463 82.5432C78.7892 82.5432 78.3574 82.7496 77.9522 82.9965L77.5551 82.2767C78.0619 81.9583 78.7141 81.6733 79.4449 81.6733C80.5958 81.6733 81.1626 82.3817 81.1626 83.6633V86.3881H80.2772L80.1952 85.8782H80.1652C79.7531 86.2301 79.2798 86.5 78.7361 86.5C77.9303 86.5 77.375 85.9532 77.375 85.1515ZM80.0821 85.1549V84.1201C78.833 84.277 78.4174 84.6035 78.4174 85.0684C78.4174 85.4745 78.6945 85.6533 79.0812 85.6533C79.468 85.6533 79.7416 85.4698 80.0821 85.1549Z" fill="white"/>
<path id="Vector_43" d="M82.459 85.2034V79.7699H83.5395V85.2599C83.5395 85.5264 83.6596 85.6198 83.7716 85.6198C83.82 85.6198 83.8581 85.6198 83.9401 85.6014L84.0752 86.4066C83.9436 86.4596 83.7635 86.5 83.5049 86.5C82.7395 86.5 82.459 86.0051 82.459 85.2034Z" fill="white"/>
<path id="Vector_44" d="M85 79.7699H86.0575V83.9033H86.0875L87.7937 81.7864H88.9747L87.3966 83.6598L89.1363 86.3881H87.9622L86.7778 84.3912L86.0575 85.2195V86.3881H85V79.7699Z" fill="white"/>
<path id="Vector_45" d="M89.374 84.0901C89.374 82.5951 90.413 81.6733 91.4958 81.6733C92.7415 81.6733 93.3972 82.5732 93.3972 83.8583C93.3972 84.0648 93.3752 84.2701 93.3498 84.3832H90.4269C90.5169 85.1999 91.0422 85.6648 91.7844 85.6648C92.1781 85.6648 92.5152 85.5414 92.8534 85.3314L93.2205 86.0017C92.7819 86.2981 92.2266 86.5 91.6425 86.5C90.3714 86.5 89.374 85.6083 89.374 84.0901ZM92.4644 83.6483C92.4644 82.94 92.1492 82.5085 91.5189 82.5085C90.9821 82.5085 90.51 82.91 90.4165 83.6483H92.4644Z" fill="white"/>
<path id="Vector_46" d="M94.4316 81.7864H95.3171L95.399 82.6066H95.4291C95.7569 82.0067 96.2452 81.6733 96.7382 81.6733C96.9725 81.6733 97.1203 81.7033 97.2588 81.7668L97.0718 82.7035C96.9102 82.6585 96.7901 82.6285 96.5996 82.6285C96.2325 82.6285 95.7892 82.88 95.5122 83.5802V86.387H94.4316V81.7852V81.7864Z" fill="white"/>
</g>
</g>
<defs>
<clipPath id="clip0_2244_6271">
<rect width="101" height="86" fill="white" transform="translate(0 0.5)"/>
</clipPath>
</defs>
</svg>
