<svg xmlns="http://www.w3.org/2000/svg" width="53" height="52" viewBox="0 0 53 52" fill="none">
                                    <rect x="1" y="0.5" width="51" height="51" rx="25.5" stroke="white"/>
                                    <path d="M34.9678 27.6617L27.1069 35.8873C27.0663 35.9297 27.0181 35.9634 26.9651 35.9864C26.9121 36.0094 26.8553 36.0213 26.7979 36.0213C26.7405 36.0213 26.6837 36.0094 26.6306 35.9864C26.5776 35.9634 26.5295 35.9297 26.4889 35.8873L18.628 27.6617C18.546 27.5759 18.5 27.4596 18.5 27.3384C18.5 27.2171 18.546 27.1008 18.628 27.0151C18.7099 26.9293 18.8211 26.8811 18.937 26.8811C19.0528 26.8811 19.164 26.9293 19.2459 27.0151L26.3612 34.4603V15.457C26.3612 15.3358 26.4072 15.2195 26.4891 15.1338C26.571 15.0481 26.682 15 26.7979 15C26.9137 15 27.0248 15.0481 27.1067 15.1338C27.1886 15.2195 27.2346 15.3358 27.2346 15.457V34.4603L34.3498 27.0151C34.4318 26.9293 34.5429 26.8811 34.6588 26.8811C34.7747 26.8811 34.8858 26.9293 34.9678 27.0151C35.0497 27.1008 35.0957 27.2171 35.0957 27.3384C35.0957 27.4596 35.0497 27.5759 34.9678 27.6617Z" fill="white"/>
                                </svg>