<svg width="56" height="87" viewBox="0 0 56 87" fill="none" xmlns="http://www.w3.org/2000/svg">
<g id="Legal 500" clip-path="url(#clip0_2244_6224)">
<g id="Group">
<path id="Vector" d="M29.7293 6.59252C29.8421 6.77644 29.922 7.14898 30.1147 7.14898L31.3836 5.66353H31.5246C31.5528 8.69101 31.6044 11.478 31.5763 14.5573C31.5481 14.6375 31.4353 14.5856 31.3554 14.6092C30.9136 11.7138 30.8055 8.71459 29.2641 6.27186C29.0197 5.92761 28.686 5.7154 28.3007 5.63524C27.9435 5.55507 27.6427 5.81915 27.4735 6.11152L27.2808 6.74814L27.309 27.087C27.3654 27.4076 27.5299 27.7236 27.8589 27.8556C28.1362 27.9075 28.4933 27.9075 28.7377 27.7236C29.0667 27.4548 29.0291 27.0587 29.0291 26.6626V17.7687C28.8364 17.5282 28.2161 17.8489 28.2443 17.4764C29.7857 17.4764 31.299 17.3679 32.8404 17.4481C32.784 17.7404 32.3188 17.4999 32.1778 17.7687V27.6198C32.0979 27.7 32.2624 27.9924 32.0133 27.8839L30.7726 25.9458H30.6927C30.3356 26.7946 29.7011 27.8839 28.6296 28.016C27.3936 28.2565 26.1812 27.7755 25.4621 26.7144C24.1133 24.3 24.1133 21.3244 23.9489 18.4289C23.8925 14.977 23.8643 11.445 24.9123 8.36563C25.3258 7.14426 26.261 5.63052 27.7461 5.41831C28.6813 5.25798 29.3158 5.8946 29.7293 6.58781" fill="white"/>
<path id="Vector_2" d="M47.4324 5.71539C47.047 5.81913 46.6053 5.66351 46.2481 5.84743V27.5397C46.6053 27.7519 47.0752 27.568 47.4324 27.568C48.5039 26.8795 48.8375 25.6298 49.2229 24.5405C49.8292 22.6542 50.1863 20.6642 50.379 18.6175C50.4307 18.5657 50.5153 18.594 50.5717 18.594C50.7127 21.6215 50.6234 24.9319 50.6516 27.8792C47.9258 27.9594 44.5938 27.9075 42.1454 27.8792V27.7283C42.4461 27.6481 42.8033 27.832 43.0242 27.568C42.996 20.3718 43.0524 13.2039 43.0242 5.85214C42.7516 5.7201 42.3381 5.82385 42.0608 5.74368C42.0091 5.55977 42.2535 5.61164 42.3897 5.58335C44.044 5.53148 45.7499 5.58335 47.4277 5.55505V5.71539H47.4324Z" fill="white"/>
<path id="Vector_3" d="M10.6209 5.58337C10.729 5.63525 10.7055 5.76729 10.6773 5.82387C10.2637 5.85217 9.67157 5.72013 9.3426 5.95591V27.568C9.67157 27.7802 9.99114 27.568 10.3765 27.6481C11.0109 27.4076 11.26 26.7474 11.5608 26.2429C12.6323 23.9086 13.1023 21.3291 13.4359 18.7025H13.6568C13.685 21.7299 13.7132 24.913 13.6004 27.8886L5.1177 27.8604C5.113 27.469 5.88843 27.7189 6.1375 27.502V5.84745L5.31038 5.79558V5.58337H10.6256H10.6209Z" fill="white"/>
<path id="Vector_4" d="M22.9711 14.1612H22.7361C22.3226 11.5299 21.9372 8.90323 20.7529 6.59253C20.283 5.92762 19.4041 5.76728 18.6851 5.90404L18.5535 6.03608V16.3116C18.5535 16.3635 18.5441 16.4436 18.6287 16.4955C19.2914 16.3918 19.672 15.7268 19.9211 15.2223C20.3629 13.9207 20.6636 12.5673 20.7764 11.1338C20.8328 11.0819 20.8845 11.1055 20.9691 11.1055C20.9973 14.7413 20.9973 18.4855 20.9691 22.1496C20.9127 22.2298 20.8046 22.2298 20.7482 22.2298C20.6072 21.6451 20.5837 21.0084 20.4991 20.3954C20.142 19.1222 20.1655 17.4481 18.7086 16.8115H18.5488V27.4595C18.5488 27.568 18.5394 27.6717 18.6522 27.6717C20.0856 27.8556 20.6636 26.29 21.1571 25.3893C21.9278 23.3427 22.3414 21.1688 22.6421 18.9618C22.722 18.9099 22.8207 18.8817 22.9053 18.9335V27.8038L22.8113 27.8839L14.3286 27.8556V27.6717C14.6059 27.5633 15.1134 27.7519 15.3343 27.5114V5.90404C15.0617 5.72013 14.7422 5.90404 14.4978 5.74371V5.66354C17.2235 5.61167 20.1561 5.61167 22.9617 5.66354V14.1612H22.9711Z" fill="white"/>
<path id="Vector_5" d="M41.0976 27.6199C40.7122 25.5497 38.87 6.03141 38.87 6.03141L38.7901 5.63058C38.2402 5.57871 37.6058 5.57871 37.0559 5.63058L36.727 7.70077L34.0576 26.0213C33.9448 26.5777 33.8367 27.2426 33.2023 27.535C33.0613 27.7189 32.5115 27.535 32.7324 27.8793L35.5427 27.851C35.679 27.5586 35.2936 27.6105 35.1573 27.5586C34.5793 27.3181 34.4148 26.7616 34.3584 26.2335C34.5229 25.196 34.5511 24.1114 34.8284 23.1023L37.2251 23.074L37.3614 23.1777C37.4977 24.6679 37.6622 26.0213 37.7186 27.535C37.4695 27.6954 37.1687 27.6388 36.8633 27.6954C36.8915 27.7472 36.8398 27.8274 36.8915 27.8557L41.6521 27.8274V27.6435L41.1023 27.6199H41.0976ZM37.1593 22.8382C36.3886 22.8099 35.5897 22.8901 34.8472 22.758L36.445 11.8977L37.3003 22.7297L37.164 22.8335L37.1593 22.8382Z" fill="white"/>
<path id="Vector_6" d="M18.3284 29.3222C17.943 31.1519 16.2371 33.1702 14.1974 33.4626C12.1343 33.7833 9.87385 33.5946 7.81074 33.3824L7.73085 33.5946L7.42538 36.2779L7.48177 36.3298C10.1276 34.6557 14.3948 34.5755 17.036 36.2779C18.4976 37.3153 19.2119 38.8291 18.9346 40.5786C18.7137 42.2527 17.0877 43.79 15.4663 44.2144C12.4116 45.0915 8.66606 44.7992 6.24109 42.861C5.47036 42.2527 5.24948 41.3237 5.44216 40.3947C5.63485 39.5977 6.40557 38.8291 7.2045 38.6169C7.97523 38.4047 8.83055 38.5367 9.46499 38.9611C10.1793 39.5176 10.5929 40.2344 10.5647 41.0879C10.5365 41.9886 9.93025 42.8374 9.07963 43.2618C8.77415 43.3939 8.41699 43.4222 8.11622 43.5542C9.49319 44.271 11.1991 44.3795 12.8816 44.2993V35.4856C10.8138 35.2451 8.94334 35.8582 7.31729 36.8909L6.98832 36.707C7.2092 34.2124 7.53817 31.6612 7.81544 29.1666L7.90003 29.1383C11.1756 29.6429 15.0575 30.1192 18.3331 29.3269" fill="white"/>
<path id="Vector_7" d="M49.3595 31.9253C48.147 30.3832 46.4975 29.4259 44.5989 29.242C41.8731 28.9779 39.5328 30.0909 37.9349 32.2412C36.229 34.3633 36.088 37.7916 37.1642 40.2343C38.1558 42.5969 40.6888 44.5633 43.3347 44.6954C46.2813 44.8038 48.8708 42.8893 50.0551 40.423C51.3475 37.8482 51.1548 34.2077 49.3642 31.9253M44.7634 44.1389C44.049 44.3511 43.2501 44.3511 42.5358 44.1389V29.7466C43.1984 29.5863 44.0772 29.4825 44.7634 29.7183V44.1342V44.1389Z" fill="white"/>
<path id="Vector_8" d="M33.8886 33.0901C33.3623 31.9772 32.3754 30.8313 31.2146 30.1946C29.1796 28.9733 26.0121 28.8931 24.0007 30.2465C21.4113 31.9206 20.1471 34.5472 20.368 37.5464C20.5606 40.4654 22.6003 43.3892 25.5422 44.37C28.3243 45.2189 31.0501 44.106 32.8641 42.0075C34.8191 39.6685 35.369 35.7922 33.8839 33.0854M28.6251 44.1012C27.939 44.2852 27.14 44.2852 26.421 44.1012V29.7655C27.0836 29.5816 27.9907 29.5816 28.6251 29.7655V44.1012Z" fill="white"/>
<path id="Vector_9" d="M24.6583 3.29157C24.6254 3.43775 24.5596 3.74899 24.5643 3.89518C24.5784 4.16869 24.8228 4.11681 25.0718 4.11681L25.0342 4.31487C24.7335 4.31016 24.4327 4.29601 24.1319 4.2913C23.8359 4.29601 23.5304 4.31016 23.2343 4.31487L23.2719 4.11681C23.7372 4.12153 23.7701 4.04608 23.864 3.56036L24.4045 0.716793H24.3293C23.7231 0.716793 23.4411 0.773382 23.2437 1.48074H23.0322L23.2437 0.447998C23.7607 0.452714 24.287 0.466861 24.804 0.471577C25.2786 0.462145 25.7533 0.452714 26.2373 0.447998C26.2373 0.603616 26.2373 0.768666 26.2373 0.929C26.2514 1.13177 26.2702 1.32983 26.289 1.53733H26.0775C25.9789 0.905421 25.805 0.721509 25.2316 0.721509H25.147L24.6583 3.29628V3.29157Z" fill="white"/>
<path id="Vector_10" d="M27.1914 1.34398C27.2243 1.18836 27.3512 0.63662 27.3512 0.476286C27.3512 0.264079 27.0646 0.264079 26.933 0.264079L26.9753 0.0801669L28.122 0L27.5251 2.55591L27.5392 2.60307C27.7178 2.1928 28.2019 1.72595 28.6436 1.72595C29.0196 1.72595 29.1653 1.95702 29.1653 2.14564C29.1653 2.33427 29.1324 2.53705 29.076 2.71624L28.8974 3.34343C28.8692 3.42832 28.7987 3.67825 28.7987 3.75841C28.7987 3.83387 28.841 3.92346 28.9115 3.92346C29.1042 3.92346 29.2781 3.5132 29.3626 3.34815L29.466 3.38587C29.3156 3.79142 28.9914 4.33845 28.5637 4.33845C28.3475 4.33845 28.1596 4.1451 28.1596 3.89517C28.1596 3.70183 28.2254 3.46604 28.2817 3.28213L28.4509 2.65966C28.4838 2.54176 28.5496 2.31069 28.5496 2.18809C28.5496 2.06548 28.4885 1.98531 28.371 1.98531C28.169 1.98531 27.8635 2.31541 27.7648 2.48989C27.605 2.77755 27.4123 3.06992 27.3183 3.39059L27.0787 4.22055H26.4912L27.182 1.34398H27.1914Z" fill="white"/>
<path id="Vector_11" d="M32.0696 3.42831C31.7078 4.0272 31.3694 4.28657 30.6927 4.28657C30.1898 4.28657 29.8984 3.93289 29.8984 3.36229C29.8984 2.43801 30.6269 1.71179 31.4822 1.71179C31.7689 1.71179 32.173 1.74009 32.173 2.13149C32.173 2.75868 31.0827 3.20667 30.5564 3.35286C30.5376 3.47075 30.5047 3.67352 30.5047 3.79142C30.5047 4.03192 30.7303 4.09322 30.8759 4.09322C31.4164 4.09322 31.7783 3.57449 31.9615 3.32928L32.0649 3.42831H32.0696ZM31.6843 2.08433C31.6843 1.8957 31.5621 1.84855 31.3412 1.88156C30.9088 1.94758 30.6692 2.76811 30.594 3.10764C30.9652 2.98503 31.6843 2.57477 31.6843 2.08433Z" fill="white"/>
<path id="Vector_12" d="M21.5661 2.81531H5.21631V3.1124H21.5661V2.81531Z" fill="white"/>
<path id="Vector_13" d="M50.6093 2.81531H33.5405V3.1124H50.6093V2.81531Z" fill="white"/>
<path id="Vector_14" d="M50.5579 47.3409H5.22119V47.638H50.5579V47.3409Z" fill="white"/>
</g>
<g id="Group_2">
<path id="Vector_15" d="M5.25879 52.8961V50.972H5.88853V52.8725C5.88853 53.5751 6.2034 53.8769 6.75325 53.8769C7.3031 53.8769 7.61327 53.5751 7.61327 52.8725V50.972H8.23361V52.8961C8.23361 53.8911 7.67436 54.4287 6.74855 54.4287C5.82274 54.4287 5.25879 53.8864 5.25879 52.8961Z" fill="white"/>
<path id="Vector_16" d="M12.139 50.972V54.3815H11.6174L9.74223 52.0708V54.3815H9.11719V50.972H9.63884L11.514 53.2827V50.972H12.139Z" fill="white"/>
<path id="Vector_17" d="M13.0552 50.972H13.6849V54.3815H13.0552V50.972Z" fill="white"/>
<path id="Vector_18" d="M15.2968 51.5096H14.1689V50.972H17.0545V51.5096H15.9266V54.3815H15.2968V51.5096Z" fill="white"/>
<path id="Vector_19" d="M20.0813 53.8534V54.3863H17.5342V50.9768H20.0155V51.5097H18.1639V52.3962H19.8041V52.915H18.1639V53.8534H20.0813Z" fill="white"/>
<path id="Vector_20" d="M20.7861 50.972H22.2712C23.3709 50.972 24.1275 51.6558 24.1275 52.6791C24.1275 53.7024 23.3756 54.3862 22.2712 54.3862H20.7861V50.9768V50.972ZM22.243 53.8439C22.9996 53.8439 23.4884 53.3818 23.4884 52.6744C23.4884 51.9671 22.9996 51.5049 22.243 51.5049H21.4159V53.8439H22.243Z" fill="white"/>
<path id="Vector_21" d="M27.3094 52.9574L26.7689 53.5139V54.3863H26.1392V50.9768H26.7689V52.7263L28.4466 50.9768H29.1563L27.7276 52.5L29.2409 54.3863H28.503L27.3047 52.9574H27.3094Z" fill="white"/>
<path id="Vector_22" d="M29.6826 50.972H30.3124V54.3815H29.6826V50.972Z" fill="white"/>
<path id="Vector_23" d="M34.2503 50.972V54.3815H33.7287L31.8536 52.0708V54.3815H31.2285V50.972H31.7502L33.6253 53.2827V50.972H34.2503Z" fill="white"/>
<path id="Vector_24" d="M37.4885 52.6414H38.0854V53.9996C37.7329 54.2872 37.2347 54.4334 36.7554 54.4334C35.7027 54.4334 34.9272 53.6978 34.9272 52.6792C34.9272 51.6606 35.7027 50.9249 36.7695 50.9249C37.3381 50.9249 37.8128 51.1136 38.1323 51.4814L37.7329 51.8728C37.465 51.604 37.1595 51.4814 36.7977 51.4814C36.0739 51.4814 35.5664 51.9718 35.5664 52.6792C35.5664 53.3865 36.0739 53.877 36.793 53.877C37.0374 53.877 37.2723 53.8298 37.4932 53.7025V52.6414H37.4885Z" fill="white"/>
<path id="Vector_25" d="M38.917 50.972H40.4021C41.5018 50.972 42.2584 51.6558 42.2584 52.6791C42.2584 53.7024 41.5065 54.3862 40.4021 54.3862H38.917V50.9768V50.972ZM40.3739 53.8439C41.1305 53.8439 41.6192 53.3818 41.6192 52.6744C41.6192 51.9671 41.1305 51.5049 40.3739 51.5049H39.5467V53.8439H40.3739Z" fill="white"/>
<path id="Vector_26" d="M42.686 52.6792C42.686 51.67 43.4615 50.9249 44.5142 50.9249C45.5669 50.9249 46.3423 51.6653 46.3423 52.6792C46.3423 53.693 45.5669 54.4334 44.5142 54.4334C43.4615 54.4334 42.686 53.6883 42.686 52.6792ZM45.7126 52.6792C45.7126 51.9812 45.205 51.4814 44.5189 51.4814C43.8327 51.4814 43.3252 51.9812 43.3252 52.6792C43.3252 53.3771 43.8327 53.877 44.5189 53.877C45.205 53.877 45.7126 53.3771 45.7126 52.6792Z" fill="white"/>
<path id="Vector_27" d="M50.1399 54.3815V52.1227L49.0167 53.9948H48.7347L47.6162 52.151V54.3815H47.0146V50.972H47.5363L48.8851 53.2309L50.2103 50.972H50.732V54.3815H50.1399Z" fill="white"/>
</g>
<g id="Group_3">
<path id="Vector_28" d="M3.90058 69.8678C3.84888 70.2309 3.82068 70.6412 3.82068 71.0939L3.78309 71.1316L1.20773 71.108C0.780066 71.108 0.474594 71.1175 0.296011 71.1316L0.258415 71.0939V70.9901L0.277213 70.943C0.451097 70.8251 0.545088 70.7544 0.559187 70.7261C0.582684 70.6836 0.592084 70.5186 0.596783 70.2309L0.606182 69.3962V67.51C0.606182 66.9205 0.592084 66.5338 0.559187 66.3546C0.545088 66.2839 0.507491 66.2367 0.436998 66.2178C0.399401 66.2084 0.263114 66.1943 0.0234363 66.1801L-0.0141602 66.1424V65.8877L0.0234363 65.8547C0.267814 65.8689 0.62498 65.8783 1.09494 65.8783C1.56489 65.8783 1.95026 65.8689 2.20403 65.8547L2.24163 65.8877V66.1424L2.20403 66.1754C1.96436 66.1896 1.82337 66.2037 1.79047 66.2131C1.71998 66.232 1.68238 66.2792 1.66828 66.3499C1.64009 66.5291 1.62129 66.9111 1.62129 67.5052V69.731C1.62129 70.0564 1.62599 70.3724 1.64009 70.6742H2.11944C2.81028 70.6742 3.23324 70.6459 3.38832 70.5893C3.41652 70.5799 3.43532 70.5657 3.44472 70.5469C3.46822 70.5139 3.49171 70.4384 3.51051 70.3252L3.5951 69.8631L3.6327 69.8206H3.84888L3.88648 69.8584L3.90058 69.8678Z" fill="white"/>
<path id="Vector_29" d="M8.29462 69.8678C8.24292 70.2309 8.21473 70.6412 8.21473 71.0939L8.17713 71.1316L5.60177 71.108C5.17411 71.108 4.86864 71.1175 4.69005 71.1316L4.65246 71.0939V70.9901L4.67126 70.943C4.84514 70.8251 4.93913 70.7544 4.95323 70.7261C4.97673 70.6789 4.98613 70.5138 4.99083 70.2309L5.00023 69.3962V67.51C5.00023 66.9205 4.98613 66.5338 4.95323 66.3546C4.93913 66.2839 4.90153 66.2367 4.83104 66.2178C4.79344 66.2084 4.65716 66.1943 4.41748 66.1801L4.37988 66.1424V65.8877L4.41748 65.8547C4.65716 65.8689 5.02372 65.8783 5.52188 65.8783C5.96364 65.8783 6.80956 65.8689 8.05494 65.8547L8.09254 65.883L8.04554 66.298C8.03144 66.4301 8.02204 66.5432 8.01265 66.6328L7.98915 66.9771L7.95155 67.0195H7.74477L7.70717 66.9818C7.70717 66.647 7.68368 66.4536 7.65078 66.4065C7.62728 66.3735 7.49569 66.3452 7.27011 66.3263C7.03984 66.3074 6.84245 66.298 6.66857 66.298C6.46179 66.298 6.25501 66.3074 6.04353 66.3263C6.01533 66.5857 6.00593 66.9488 6.00593 67.4109V68.1796C6.19391 68.1937 6.3443 68.1984 6.45709 68.1984H6.92235C7.13853 68.1937 7.26072 68.1749 7.28891 68.1371C7.32651 68.0947 7.35001 67.9249 7.36411 67.6373L7.4017 67.5996H7.62258L7.66018 67.6373C7.65078 67.9155 7.64608 68.1702 7.64608 68.4012C7.64608 68.6512 7.65078 68.9247 7.66018 69.2217L7.62258 69.2548H7.3829L7.34531 69.217C7.34531 68.9341 7.32651 68.7643 7.28891 68.7077C7.25132 68.6559 7.13853 68.6181 6.94584 68.5993C6.80016 68.5851 6.64977 68.5804 6.48529 68.5804C6.3114 68.5804 6.15162 68.5851 6.00123 68.5993V69.7358C6.00123 70.0611 6.00593 70.3771 6.02003 70.6789H6.50409C7.19492 70.6789 7.61788 70.6506 7.77297 70.594C7.80117 70.5846 7.81996 70.5704 7.82936 70.5516C7.85286 70.5186 7.87636 70.4431 7.89516 70.3299L7.97975 69.8678L8.01734 69.8254H8.23353L8.27112 69.8631L8.29462 69.8678Z" fill="white"/>
<path id="Vector_30" d="M14.0327 71.094L13.9998 71.1317C13.4735 71.1176 13.1586 71.1081 13.0505 71.1081C12.6182 71.1081 12.214 71.1176 11.838 71.1317L11.8051 71.094V70.8582L11.8427 70.8158L12.1529 70.7969C12.2845 70.7875 12.3456 70.7403 12.3456 70.6507C12.3456 70.5988 12.3127 70.4809 12.2469 70.3017L11.9602 69.5142C11.636 69.5095 11.3023 69.5048 10.9592 69.5048C10.7759 69.5048 10.4987 69.5048 10.1368 69.5142L9.98171 69.9669C9.86422 70.3112 9.80313 70.5281 9.80313 70.613C9.80313 70.7073 9.85952 70.7639 9.96761 70.778C10.0287 70.7875 10.1509 70.7969 10.3295 70.8063L10.3671 70.844V71.0846L10.3295 71.1223C9.89242 71.1081 9.61045 71.0987 9.48826 71.0987C9.38957 71.0987 9.14989 71.1081 8.76922 71.1223L8.73633 71.0893V70.8488L8.77392 70.811C9.0183 70.7969 9.16869 70.745 9.22038 70.6601C9.27678 70.5753 9.48356 70.0565 9.84543 69.1087L10.7712 66.6801C10.8417 66.4915 10.9451 66.2085 11.0814 65.8265H11.5843L13.4594 70.4668C13.5346 70.6413 13.6004 70.7403 13.6568 70.7639C13.7367 70.7922 13.8495 70.8063 13.9951 70.8063L14.028 70.8488V71.0893L14.0327 71.094ZM11.7863 69.0945L11.0297 67.1469L10.306 69.0945C10.4987 69.104 10.7524 69.104 11.0626 69.104C11.3728 69.104 11.6078 69.104 11.791 69.0945H11.7863Z" fill="white"/>
<path id="Vector_31" d="M19.9027 68.1844C19.9027 69.0238 19.6395 69.7217 19.1179 70.2735C18.8641 70.5423 18.554 70.7545 18.1921 70.9007C17.802 71.061 17.3462 71.1364 16.8292 71.127L15.5791 71.1034C15.2408 71.0987 14.9588 71.1034 14.7379 71.127L14.7003 71.0893V70.9855L14.7191 70.9384C14.893 70.8205 14.987 70.7497 15.0011 70.7215C15.0246 70.679 15.034 70.514 15.0387 70.2263L15.0481 69.3916V67.5053C15.0481 66.9159 15.034 66.5292 15.0011 66.35C14.987 66.2793 14.9494 66.2321 14.8789 66.2132C14.8413 66.2038 14.705 66.1897 14.4653 66.1755L14.4277 66.1378V65.8831L14.4653 65.8501C14.7144 65.8643 14.9541 65.8737 15.1797 65.8737C15.7295 65.8737 16.2277 65.8643 16.6647 65.8501C16.8856 65.8407 17.1065 65.8407 17.3274 65.8407C17.943 65.8407 18.413 65.9162 18.7419 66.0623C19.0991 66.2227 19.3811 66.4773 19.5832 66.8216C19.7899 67.1752 19.8933 67.628 19.8933 68.1797L19.9027 68.1844ZM18.8171 68.3636C18.8171 67.6751 18.6573 67.147 18.3425 66.7791C18.178 66.5858 17.9712 66.449 17.7221 66.3689C17.4871 66.2934 17.1582 66.2557 16.7352 66.2557C16.5143 66.2557 16.3076 66.2698 16.1055 66.3028C16.082 66.5811 16.0679 67.2507 16.0679 68.3212L16.0773 69.9481C16.0773 70.3112 16.0867 70.5517 16.1055 70.6696C16.3123 70.7026 16.5237 70.7215 16.7446 70.7215C17.2146 70.7215 17.5858 70.6507 17.8584 70.5045C18.1498 70.3489 18.3848 70.0848 18.554 69.7076C18.7325 69.3209 18.8218 68.8729 18.8218 68.3589L18.8171 68.3636Z" fill="white"/>
<path id="Vector_32" d="M22.7692 71.0939L22.7363 71.1316C22.5013 71.1175 22.1347 71.108 21.6413 71.108C21.1478 71.108 20.7859 71.1175 20.551 71.1316L20.5181 71.0939V70.844L20.5557 70.8062C20.7953 70.7921 20.9363 70.7779 20.9692 70.7685C21.0397 70.7496 21.0773 70.7025 21.0914 70.6317C21.1243 70.4525 21.1384 70.0706 21.1384 69.4764V67.51C21.1384 66.9205 21.1243 66.5338 21.0914 66.3546C21.082 66.2839 21.0397 66.2367 20.9692 66.2178C20.9316 66.2084 20.7953 66.1943 20.5557 66.1801L20.5181 66.1424V65.8877L20.5557 65.8547C20.7812 65.8689 21.1478 65.8783 21.646 65.8783C22.1441 65.8783 22.506 65.8689 22.7316 65.8547L22.7692 65.8877V66.1424L22.7316 66.1801C22.4919 66.1943 22.3509 66.2084 22.318 66.2178C22.2475 66.2367 22.2099 66.2839 22.1958 66.3546C22.1676 66.5338 22.1488 66.9158 22.1488 67.51V69.4764C22.1488 70.0659 22.1629 70.4525 22.1958 70.6317C22.2099 70.7025 22.2475 70.7496 22.318 70.7685C22.3556 70.7779 22.4919 70.7921 22.7316 70.8062L22.7692 70.844V71.0939Z" fill="white"/>
<path id="Vector_33" d="M28.8649 66.1472L28.8273 66.1849C28.5876 66.199 28.4466 66.2132 28.4137 66.2226C28.3432 66.2415 28.3056 66.2886 28.2915 66.3594C28.2633 66.5386 28.2445 66.9205 28.2445 67.5147V69.0237C28.2445 70.1366 28.2586 70.8629 28.2915 71.2024L28.2445 71.2354C27.9767 71.1882 27.7746 71.1552 27.6383 71.1364C27.0039 70.3913 25.923 69.0284 24.3956 67.0526V69.4859C24.3956 70.0753 24.4097 70.462 24.4426 70.6412C24.452 70.712 24.4943 70.7591 24.5648 70.778C24.6024 70.7874 24.7387 70.8016 24.9783 70.8157L25.0159 70.8534V71.1081L24.9783 71.1411C24.7058 71.1269 24.4567 71.1175 24.2217 71.1175C23.9491 71.1175 23.6766 71.1269 23.404 71.1411L23.3711 71.1081V70.8534L23.404 70.8157C23.6437 70.8016 23.7847 70.7874 23.8176 70.778C23.888 70.7591 23.9256 70.712 23.9397 70.6412C23.9679 70.462 23.9867 70.0801 23.9867 69.4859V67.5194C23.9867 66.93 23.9726 66.5433 23.9397 66.3641C23.9256 66.2933 23.888 66.2462 23.8176 66.2273C23.78 66.2179 23.6437 66.2037 23.404 66.1896L23.3711 66.1519V65.8972L23.404 65.8642C23.6296 65.8784 23.8411 65.8878 24.0431 65.8878C24.3627 65.8878 24.6259 65.8784 24.8374 65.8642C25.688 67.0573 26.6843 68.3305 27.8357 69.6934V67.5147C27.8357 66.9252 27.8216 66.5386 27.7887 66.3594C27.7793 66.2886 27.737 66.2415 27.6665 66.2226C27.6289 66.2132 27.4926 66.199 27.2529 66.1849L27.2153 66.1472V65.8925L27.2529 65.8595C27.5161 65.8736 27.7699 65.8831 28.0096 65.8831C28.315 65.8831 28.5876 65.8736 28.832 65.8595L28.8696 65.8925V66.1472H28.8649Z" fill="white"/>
<path id="Vector_34" d="M34.7953 69.2312L34.7577 69.2737C34.612 69.3114 34.5274 69.3633 34.5039 69.4293C34.4804 69.4953 34.4663 69.7452 34.4663 70.1838C34.4663 70.396 34.4757 70.6035 34.4945 70.811C33.705 71.1222 32.9907 71.2778 32.3468 71.2778C31.5009 71.2778 30.8195 71.0279 30.2931 70.5328C29.7715 70.0376 29.5083 69.3586 29.5083 68.5003C29.5083 67.3827 29.9689 66.5857 30.8947 66.1094C31.3176 65.8925 31.8534 65.7841 32.5066 65.7841C32.8826 65.7841 33.268 65.8265 33.6533 65.9161C33.9729 65.9868 34.222 66.0717 34.4099 66.1613L34.4428 66.2273C34.3817 66.4443 34.3301 66.8262 34.2925 67.3638L34.2549 67.4015H34.0434L34.0058 67.3638C34.0058 67.3167 34.0011 67.2176 33.9917 67.0714C33.9823 66.9253 33.9682 66.8215 33.9541 66.7602C33.8507 66.6093 33.6721 66.4867 33.423 66.383C33.1552 66.2745 32.8638 66.2179 32.5536 66.2179C31.7171 66.2179 31.139 66.5716 30.8195 67.2836C30.6738 67.609 30.5986 67.991 30.5986 68.4249C30.5986 69.1133 30.7725 69.6887 31.125 70.1414C31.4868 70.6129 31.9615 70.8487 32.5442 70.8487C32.8544 70.8487 33.1505 70.778 33.4418 70.6412C33.4559 70.4668 33.4653 70.231 33.4653 69.9244C33.4653 69.6792 33.4559 69.5283 33.4418 69.4765C33.4277 69.4387 33.3807 69.4057 33.3055 69.3916C33.2398 69.3774 33.0424 69.3586 32.7087 69.335L32.6711 69.2973V69.0615L32.7087 69.0237C33.0518 69.0332 33.4089 69.0379 33.7849 69.0332C34.0011 69.0332 34.3254 69.0285 34.7577 69.0237L34.7953 69.0615V69.2407V69.2312Z" fill="white"/>
<path id="Vector_35" d="M40.7311 65.8878L40.6841 66.3122C40.6747 66.4066 40.6653 66.5292 40.6512 66.6848L40.6277 66.9819L40.5901 67.0243H40.3833L40.3457 66.9866C40.341 66.6518 40.3222 66.4632 40.2893 66.416C40.2329 66.3405 39.904 66.3028 39.3024 66.3028C39.2037 66.3028 39.0533 66.3122 38.8466 66.3264C38.8184 66.581 38.809 67.0337 38.809 67.6892V68.1938L39.2084 68.2032C39.3306 68.2032 39.5515 68.2032 39.8758 68.1891C39.9416 68.1891 39.9839 68.1702 40.0027 68.1325C40.0403 68.0712 40.0591 67.9109 40.0685 67.6421L40.106 67.6044H40.3269L40.3645 67.6421C40.3551 67.9203 40.3504 68.175 40.3504 68.406C40.3504 68.656 40.3504 68.9295 40.3645 69.2266L40.3269 69.2596H40.0873L40.0497 69.2218C40.0497 68.9625 40.0403 68.8069 40.0168 68.7644C39.9745 68.6795 39.857 68.6277 39.6502 68.6088C39.5092 68.5947 39.3729 68.5899 39.2413 68.5899C39.0768 68.5899 38.9312 68.5899 38.8043 68.5994V69.4859C38.8043 70.0754 38.8184 70.4574 38.8513 70.6413C38.8607 70.712 38.903 70.7592 38.9735 70.778C38.9876 70.7827 39.1567 70.7969 39.481 70.8157L39.5186 70.8535V71.1034L39.481 71.1411L38.057 71.1176C37.855 71.1176 37.573 71.1223 37.2158 71.1411L37.1782 71.1081V70.8535L37.2158 70.8157C37.4555 70.8016 37.5965 70.7875 37.6294 70.778C37.6999 70.7592 37.7375 70.712 37.7516 70.6413C37.7798 70.4621 37.7986 70.0754 37.7986 69.4859V67.5195C37.7986 66.93 37.7845 66.548 37.7516 66.3641C37.7375 66.2934 37.6999 66.2462 37.6294 66.2274C37.5918 66.2179 37.4555 66.2038 37.2158 66.1896L37.1782 66.1519V65.8973L37.2158 65.8643C37.4414 65.8784 37.808 65.8878 38.3061 65.8878C38.6304 65.8878 39.4246 65.8784 40.6935 65.8643L40.7311 65.8926V65.8878Z" fill="white"/>
<path id="Vector_36" d="M43.5319 71.0939L43.499 71.1316C43.264 71.1175 42.8974 71.108 42.404 71.108C41.9105 71.108 41.5486 71.1175 41.3137 71.1316L41.2808 71.0939V70.844L41.3184 70.8062C41.558 70.7921 41.699 70.7779 41.7319 70.7685C41.8024 70.7496 41.84 70.7025 41.8541 70.6317C41.887 70.4525 41.9011 70.0706 41.9011 69.4764V67.51C41.9011 66.9205 41.887 66.5338 41.8541 66.3546C41.8447 66.2839 41.8024 66.2367 41.7319 66.2178C41.6943 66.2084 41.558 66.1943 41.3184 66.1801L41.2808 66.1424V65.8877L41.3184 65.8547C41.5439 65.8689 41.9105 65.8783 42.4087 65.8783C42.9068 65.8783 43.2687 65.8689 43.4943 65.8547L43.5272 65.8877V66.1424L43.4943 66.1801C43.2546 66.1943 43.1136 66.2084 43.0807 66.2178C43.0102 66.2367 42.9726 66.2839 42.9585 66.3546C42.9303 66.5338 42.9115 66.9158 42.9115 67.51V69.4764C42.9115 70.0659 42.9256 70.4525 42.9585 70.6317C42.9726 70.7025 43.0102 70.7496 43.0807 70.7685C43.1183 70.7779 43.2546 70.7921 43.4943 70.8062L43.5272 70.844V71.0939H43.5319Z" fill="white"/>
<path id="Vector_37" d="M48.8988 71.0939L48.8612 71.1316C48.8612 71.1316 48.8001 71.1316 48.7249 71.1316C48.4006 71.1175 48.1985 71.1127 48.1186 71.1127C47.9965 71.1127 47.8085 71.1222 47.5453 71.1363C47.5359 71.075 47.4889 70.976 47.409 70.8392L46.5302 69.2972L46.1354 68.67C46.0837 68.5946 46.0179 68.5191 45.9287 68.4437L45.9662 68.3163C46.0226 68.3163 46.0602 68.3163 46.0884 68.3163C46.3187 68.3163 46.502 68.2786 46.6336 68.2032C46.7558 68.1324 46.8639 68.0098 46.9673 67.8401C47.0706 67.6656 47.1176 67.4581 47.1176 67.2176C47.1176 66.7979 46.9673 66.5149 46.6712 66.3688C46.5302 66.298 46.3234 66.265 46.0508 66.265C45.9334 66.265 45.8206 66.2744 45.7125 66.2933C45.689 66.5385 45.6749 66.9488 45.6749 67.5382V69.4858C45.6749 70.0753 45.689 70.462 45.7219 70.6412C45.736 70.7119 45.7736 70.7591 45.8441 70.7779C45.8817 70.7874 46.0179 70.8015 46.2576 70.8157L46.2952 70.8534V71.1033L46.2623 71.141C46.0273 71.1269 45.6608 71.1175 45.172 71.1175C44.6833 71.1175 44.3026 71.1269 44.0817 71.141L44.0488 71.108V70.8534L44.0817 70.8157C44.3214 70.8015 44.4624 70.7874 44.4953 70.7779C44.5658 70.7591 44.6034 70.7119 44.6175 70.6412C44.6457 70.462 44.6645 70.08 44.6645 69.4858V67.5194C44.6645 66.9299 44.6504 66.5432 44.6175 66.364C44.6034 66.2933 44.5658 66.2461 44.4953 66.2273C44.4577 66.2178 44.3214 66.2037 44.0817 66.1896L44.0488 66.1518V65.8972L44.0817 65.8642C44.312 65.8783 44.6786 65.8877 45.172 65.8877C45.4587 65.8877 45.6937 65.8877 45.8723 65.8783C46.2294 65.8642 46.4973 65.8547 46.6712 65.8547C47.08 65.8547 47.3808 65.8925 47.5735 65.9679C47.832 66.0717 48.0012 66.2461 48.0905 66.4961C48.1327 66.6187 48.1562 66.7602 48.1562 66.9299C48.1562 67.6043 47.7944 68.0853 47.0706 68.3682C47.1881 68.5757 47.315 68.7879 47.4466 69.0001L47.9918 69.882C48.3113 70.4007 48.5275 70.6978 48.6309 70.7732C48.6873 70.8109 48.7625 70.8298 48.8565 70.8298L48.8941 70.8675V71.108L48.8988 71.0939Z" fill="white"/>
<path id="Vector_38" d="M56 71.0939L55.9624 71.1316C55.7274 71.1175 55.3655 71.1081 54.8721 71.1081C54.3786 71.1081 54.0027 71.1175 53.7818 71.1316L53.7489 71.0986V70.844L53.7818 70.8063C54.0215 70.7921 54.1624 70.778 54.1953 70.7685C54.2658 70.7497 54.3034 70.7025 54.3175 70.6318C54.3457 70.4526 54.3645 70.0706 54.3645 69.4764V66.9583L53.575 68.6606C53.528 68.7549 53.3776 69.1039 53.1144 69.7028L52.4659 71.193H52.2262C52.104 70.8864 51.9396 70.495 51.7281 70.0282L51.2299 68.9247L50.3041 66.897V69.4812C50.3041 70.0706 50.3182 70.4573 50.3511 70.6365C50.3652 70.7072 50.4028 70.7544 50.4733 70.7733C50.5109 70.7827 50.6472 70.7968 50.8869 70.811L50.9245 70.8487V71.1034L50.8869 71.1364C50.6143 71.1222 50.3605 71.1128 50.1302 71.1128C49.8576 71.1128 49.5851 71.1222 49.3125 71.1364L49.2749 71.1034V70.8487L49.3125 70.811C49.5522 70.7968 49.6932 70.7827 49.7261 70.7733C49.7966 70.7544 49.8342 70.7072 49.8482 70.6365C49.8811 70.4573 49.8952 70.0753 49.8952 69.4812V67.5147C49.8952 66.9252 49.8811 66.5386 49.8482 66.3594C49.8389 66.2886 49.7966 66.2415 49.7261 66.2226C49.6885 66.2132 49.5522 66.199 49.3125 66.1849L49.2749 66.1472V65.8925L49.3125 65.8595C49.5569 65.8736 49.867 65.8831 50.243 65.8831C50.5297 65.8831 50.7835 65.8736 50.9996 65.8595C51.0795 66.0481 51.1876 66.3122 51.3333 66.6565L51.5589 67.1705L52.6868 69.6462L53.2272 68.4909L54.0732 66.5904C54.1718 66.3641 54.2705 66.1236 54.3645 65.8595C54.6324 65.8736 54.811 65.8831 54.905 65.8831C55.3655 65.8831 55.7227 65.8736 55.9671 65.8595L56.0047 65.8925V66.1472L55.9671 66.1802C55.7274 66.1943 55.5864 66.2085 55.5535 66.2179C55.483 66.2368 55.4454 66.2839 55.4313 66.3546C55.4031 66.5338 55.3843 66.9158 55.3843 67.51V69.4764C55.3843 70.0659 55.3984 70.4526 55.4313 70.6318C55.4454 70.7025 55.483 70.7497 55.5535 70.7685C55.5911 70.778 55.7274 70.7921 55.9671 70.8063L56.0047 70.844V71.0939H56Z" fill="white"/>
</g>
<g id="Group_4">
<path id="Vector_39" d="M19.3432 86.9152V86.3398C20.1797 85.5948 21.7306 84.114 21.7306 82.921C21.7306 82.3551 21.3546 81.9872 20.8095 81.9872C20.3019 81.9872 20.0058 82.3409 19.8226 82.7842H19.4372C19.4607 82.6144 19.5312 82.44 19.6299 82.2938C19.9494 81.8222 20.4805 81.5723 21.0397 81.5723C21.975 81.5723 22.6752 82.0108 22.6752 83.0483C22.6752 84.0857 21.4815 85.1656 20.7625 85.7645C20.5181 85.972 20.269 86.1606 20.034 86.3634H21.7212C22.3321 86.3634 22.5389 86.2361 22.5718 85.5995H22.8068V86.9104H19.3291L19.3432 86.9152Z" fill="white"/>
<path id="Vector_40" d="M25.772 87.0001C24.1178 87.0001 23.8076 85.7221 23.8076 84.2933C23.8076 82.8644 24.1178 81.577 25.772 81.577C27.4263 81.577 27.7365 82.855 27.7365 84.2933C27.7365 85.7316 27.4263 87.0001 25.772 87.0001ZM26.7401 83.3218C26.6838 82.6946 26.524 81.959 25.772 81.959C25.0201 81.959 24.8603 82.6946 24.8039 83.3218C24.771 83.6472 24.7616 83.9632 24.7616 84.2886C24.7616 84.6328 24.771 84.9676 24.8039 85.3071C24.8697 85.9155 25.0483 86.6087 25.772 86.6087C26.4958 86.6087 26.6744 85.9155 26.7401 85.3071C26.773 84.9629 26.7824 84.6281 26.7824 84.2886C26.7824 83.949 26.773 83.6472 26.7401 83.3218Z" fill="white"/>
<path id="Vector_41" d="M28.6295 86.9152V86.3398C29.466 85.5948 31.0169 84.114 31.0169 82.921C31.0169 82.3551 30.6409 81.9872 30.0958 81.9872C29.5882 81.9872 29.2922 82.3409 29.1089 82.7842H28.7235C28.747 82.6144 28.8175 82.44 28.9162 82.2938C29.2358 81.8222 29.7668 81.5723 30.3261 81.5723C31.2613 81.5723 31.9615 82.0108 31.9615 83.0483C31.9615 84.0857 30.7678 85.1656 30.0488 85.7645C29.8044 85.972 29.5553 86.1606 29.3204 86.3634H31.0075C31.6184 86.3634 31.8252 86.2361 31.8581 85.5995H32.0931V86.9104H28.6201L28.6295 86.9152Z" fill="white"/>
<path id="Vector_42" d="M34.6828 87.0001C34.2081 87.0001 33.7475 86.9058 33.2964 86.7596V86.4059C33.6113 86.5191 33.9402 86.6134 34.2739 86.6134C35.0822 86.6134 35.7026 86.2126 35.7026 85.3213C35.7026 84.5573 35.336 84.3027 34.6405 84.3027V83.916C35.2655 83.9254 35.618 83.6661 35.618 82.9729C35.618 82.4164 35.3501 81.9637 34.758 81.9637C34.2645 81.9637 33.8979 82.2985 33.7381 82.7607H33.3857C33.5784 81.8977 34.194 81.577 35.0211 81.577C35.8482 81.577 36.5673 81.9779 36.5673 82.888C36.5673 83.4963 36.1584 83.9066 35.6227 84.0952V84.1141C36.3088 84.2603 36.6519 84.7035 36.6519 85.425C36.6519 86.5568 35.6415 87.0001 34.6781 87.0001H34.6828Z" fill="white"/>
</g>
</g>
<defs>
<clipPath id="clip0_2244_6224">
<rect width="56" height="87" fill="white"/>
</clipPath>
</defs>
</svg>
