<svg width="82" height="67" viewBox="0 0 82 67" fill="none" xmlns="http://www.w3.org/2000/svg">
<g id="SMW Logo" clip-path="url(#clip0_2244_6195)">
<g id="Group">
<path id="Vector" d="M6.25317 9.22848C6.07588 9.57988 5.83017 9.88287 5.51914 10.1359C5.20656 10.3889 4.83954 10.5841 4.41343 10.7184C3.98887 10.8527 3.52855 10.9214 3.03401 10.9214C2.31397 10.9214 1.70591 10.8262 1.21137 10.6372C0.715279 10.4482 0.312495 10.2452 0.00146484 10.0297L0.646852 8.91144C0.872349 9.0848 1.19116 9.2566 1.5986 9.42995C2.00761 9.60331 2.46949 9.68921 2.9858 9.68921C3.2113 9.68921 3.44301 9.66266 3.6794 9.60799C3.91578 9.55333 4.13039 9.46431 4.32478 9.34093C4.51762 9.21755 4.67625 9.05981 4.80066 8.87084C4.92352 8.68186 4.98572 8.45697 4.98572 8.19771C4.98572 7.76666 4.84576 7.40433 4.56583 7.11228C4.28591 6.82023 3.94533 6.55317 3.54099 6.30953C3.13665 6.0659 2.7152 5.8207 2.27354 5.57238C1.83188 5.32405 1.45087 5.02107 1.12739 4.66499C0.901897 4.41667 0.7215 4.13555 0.587757 3.82163C0.452459 3.50928 0.387142 3.14694 0.387142 2.7362C0.387142 2.35825 0.455569 2.00217 0.597088 1.66639C0.737051 1.33217 0.943886 1.04011 1.21915 0.791793C1.49285 0.543471 1.82877 0.34825 2.22689 0.209252C2.625 0.0686928 3.076 -0.00158691 3.58142 -0.00158691C4.15061 -0.00158691 4.63737 0.0546369 5.04171 0.168646C5.44605 0.282656 5.77574 0.404474 6.0339 0.534101L6.01679 1.96C5.69332 1.75541 5.3263 1.58517 4.91574 1.4493C4.50518 1.31342 4.07907 1.24627 3.63585 1.24627C3.13976 1.24627 2.71209 1.35403 2.35752 1.56956C1.99983 1.78508 1.82255 2.12555 1.82255 2.59095C1.82255 2.95797 1.93763 3.27345 2.16935 3.53895C2.40106 3.80445 2.69032 4.04965 3.03556 4.27611C3.38081 4.50256 3.75871 4.72433 4.16927 4.94142C4.57827 5.15694 4.95773 5.40527 5.30142 5.68639C5.64666 5.9675 5.93592 6.29704 6.16764 6.67499C6.39936 7.05294 6.51599 7.5121 6.51599 8.05247C6.51599 8.48508 6.42735 8.87552 6.25006 9.22692L6.25317 9.22848Z" fill="white"/>
<path id="Vector_2" d="M8.24532 3.2735C8.50348 2.6035 8.87516 2.02096 9.35881 1.52431C9.84246 1.0386 10.4054 0.662216 11.0446 0.398277C11.6838 0.134337 12.3914 0.00158691 13.1658 0.00158691C13.9947 0.00158691 14.7474 0.146832 15.4239 0.438883C16.1019 0.730934 16.6774 1.14012 17.1501 1.66956C17.5809 2.15527 17.9121 2.72063 18.1423 3.36252C18.3725 4.00441 18.4891 4.70564 18.4891 5.45998C18.4891 6.28147 18.3522 7.03424 18.077 7.71986C17.8033 8.40548 17.4176 8.99271 16.9231 9.47842C16.4394 9.94226 15.8827 10.2999 15.2544 10.5482C14.6246 10.7966 13.9278 10.9215 13.1643 10.9215C12.4007 10.9215 11.7475 10.8075 11.1379 10.581C10.5298 10.3546 9.9902 10.025 9.51744 9.59243C8.99024 9.10671 8.58124 8.51168 8.29042 7.81044C7.99961 7.10921 7.85498 6.33613 7.85498 5.49278C7.85498 4.64942 7.98406 3.9435 8.24221 3.2735H8.24532ZM16.6913 3.79982C16.5234 3.28755 16.2792 2.84401 15.9573 2.47075C15.6354 2.09748 15.2388 1.80856 14.7723 1.60396C14.3042 1.39937 13.7692 1.2963 13.1674 1.2963C12.5966 1.2963 12.0788 1.39313 11.6107 1.58835C11.1426 1.78357 10.7445 2.06156 10.4163 2.42233C10.0882 2.78466 9.83469 3.22508 9.65896 3.74359C9.48167 4.2621 9.39303 4.83996 9.39303 5.47716C9.39303 6.11436 9.48167 6.69222 9.65896 7.21072C9.83624 7.72923 10.0882 8.16965 10.4163 8.53042C10.7445 8.89275 11.1426 9.17075 11.6107 9.36441C12.0788 9.55807 12.5966 9.65646 13.1674 9.65646C13.7381 9.65646 14.256 9.55963 14.7241 9.36441C15.1922 9.16919 15.5903 8.89119 15.9184 8.53042C16.2466 8.16809 16.5001 7.72767 16.6774 7.21072C16.8546 6.69222 16.9433 6.11436 16.9433 5.47716C16.9433 4.87275 16.8593 4.31364 16.6929 3.79982H16.6913Z" fill="white"/>
<path id="Vector_3" d="M28.1559 10.7591L22.9602 3.87328C22.6802 3.49533 22.4563 3.19079 22.2899 2.95808C22.1219 2.72538 21.9804 2.50204 21.8622 2.28496H21.8296C21.8622 2.64104 21.8778 3.08459 21.8778 3.61403V10.7607H20.4424V0.0812988H21.9104L26.8963 6.7079C27.2197 7.14051 27.467 7.47785 27.6381 7.71992C27.8107 7.96356 27.9491 8.19314 28.058 8.40866H28.0906C28.0797 8.20407 28.072 7.98699 28.0673 7.76053C28.0611 7.53407 28.058 7.28575 28.058 7.01556V0.0812988H29.4949V10.7591H28.1559Z" fill="white"/>
<path id="Vector_4" d="M39.7575 10.7591L34.5617 3.87328C34.2818 3.49533 34.0579 3.19079 33.8915 2.95808C33.7235 2.72538 33.582 2.50204 33.4638 2.28496H33.4311C33.4638 2.64104 33.4793 3.08459 33.4793 3.61403V10.7607H32.0439V0.0812988H33.512L38.4978 6.7079C38.8213 7.14051 39.0686 7.47785 39.2396 7.71992C39.4122 7.96356 39.5507 8.19314 39.6595 8.40866H39.6922C39.6813 8.20407 39.6735 7.98699 39.6688 7.76053C39.6626 7.53407 39.6595 7.28575 39.6595 7.01556V0.0812988H41.0965V10.7591H39.7575Z" fill="white"/>
</g>
<g id="Group_2">
<path id="Vector_5" d="M9.43974 24.2575V16.4798C9.43974 16.3174 9.45063 16.1128 9.4724 15.8645H9.45529C9.36976 16.08 9.27178 16.2784 9.16603 16.4564C9.05873 16.6345 8.96075 16.7938 8.87522 16.9343L6.2439 21.148H5.40568L2.59863 16.9187C2.51154 16.7781 2.42134 16.6298 2.32337 16.4736C2.22695 16.3174 2.12431 16.1144 2.017 15.8661H1.98435C2.017 16.1144 2.03567 16.3174 2.04189 16.4736C2.04655 16.6298 2.04966 16.8 2.04966 16.9843V24.2606H0.614258V13.5828H2.017L5.24394 18.3946C5.39324 18.6101 5.51298 18.7944 5.59852 18.9459C5.68405 19.0974 5.76025 19.2489 5.82401 19.3988H5.85667C5.92199 19.2582 5.99041 19.1099 6.06662 18.9537C6.14126 18.7975 6.25323 18.6054 6.40564 18.379L9.43818 13.5828H10.8736V24.2606H9.43818L9.43974 24.2575Z" fill="white"/>
<path id="Vector_6" d="M20.0086 24.2575L18.9278 21.4697H14.8129L13.8129 24.2575H12.3931L16.4753 13.5469H17.396L21.542 24.2575H20.0086ZM17.3307 16.9984C17.1472 16.4908 17.0134 16.0488 16.9279 15.6693H16.9123C16.8159 16.0473 16.6744 16.4846 16.4924 16.9812L15.3136 20.2219H18.4442L17.3307 16.9968V16.9984Z" fill="white"/>
<path id="Vector_7" d="M28.915 24.2169C28.3878 24.3512 27.8668 24.4199 27.3505 24.4199C26.545 24.4199 25.8203 24.284 25.1811 24.0154C24.5419 23.7468 23.9976 23.3704 23.5513 22.8893C23.1034 22.4083 22.7628 21.8383 22.5264 21.1792C22.2901 20.5201 22.1719 19.808 22.1719 19.0396C22.1719 18.2712 22.3025 17.5387 22.5669 16.8687C22.8297 16.1987 23.2014 15.6131 23.6804 15.1102C24.1594 14.6073 24.7317 14.2137 25.3988 13.9279C26.066 13.6421 26.8078 13.4984 27.6258 13.4984C28.2385 13.4984 28.7766 13.5609 29.2385 13.6843C29.7004 13.8092 30.072 13.9513 30.352 14.1138L30.3349 15.5396C29.9259 15.2913 29.5153 15.0977 29.1001 14.9571C28.6864 14.8165 28.1888 14.7463 27.6071 14.7463C27.0255 14.7463 26.4641 14.854 25.9867 15.0696C25.5077 15.2851 25.0987 15.5849 24.7596 15.9691C24.4206 16.3533 24.1625 16.7984 23.9852 17.306C23.8079 17.8136 23.7192 18.3602 23.7192 18.9427C23.7192 19.5253 23.8048 20.1047 23.9774 20.6123C24.1485 21.1199 24.402 21.5603 24.7348 21.932C25.0676 22.3037 25.4688 22.5957 25.9369 22.8066C26.405 23.0174 26.94 23.1221 27.5418 23.1221C28.0052 23.1221 28.4485 23.0596 28.873 22.9362C29.2976 22.8113 29.6988 22.6473 30.0751 22.4411L30.495 23.5593C29.9678 23.8623 29.4406 24.081 28.9135 24.2153L28.915 24.2169Z" fill="white"/>
<path id="Vector_8" d="M41.1136 24.2575V16.4798C41.1136 16.3174 41.1245 16.1128 41.1462 15.8645H41.1291C41.0436 16.08 40.9456 16.2784 40.8399 16.4564C40.7326 16.6345 40.6346 16.7938 40.549 16.9343L37.9177 21.148H37.0795L34.2725 16.9187C34.1854 16.7781 34.0952 16.6298 33.9972 16.4736C33.9008 16.3174 33.7981 16.1144 33.6908 15.8661H33.6582C33.6908 16.1144 33.7095 16.3174 33.7157 16.4736C33.7204 16.6298 33.7235 16.8 33.7235 16.9843V24.2606H32.2881V13.5828H33.6908L36.9178 18.3946C37.0671 18.6101 37.1868 18.7944 37.2723 18.9459C37.3579 19.0974 37.4341 19.2489 37.4978 19.3988H37.5305C37.5958 19.2582 37.6642 19.1099 37.7404 18.9537C37.8151 18.7975 37.9271 18.6054 38.0795 18.379L41.112 13.5828H42.5474V24.2606H41.112L41.1136 24.2575Z" fill="white"/>
<path id="Vector_9" d="M45.0977 24.2574V13.5796H46.5331V24.2574H45.0977Z" fill="white"/>
<path id="Vector_10" d="M49.0835 24.2574V13.5796H50.5189V22.9783H54.4721V24.259H49.0835V24.2574Z" fill="white"/>
<path id="Vector_11" d="M55.9404 24.2574V13.5796H57.3758V22.9783H61.329V24.259H55.9404V24.2574Z" fill="white"/>
<path id="Vector_12" d="M69.3817 24.2575L68.3009 21.4697H64.1859L63.186 24.2575H61.7661L65.8484 13.5469H66.769L70.9151 24.2575H69.3817ZM66.7037 16.9984C66.5202 16.4908 66.3865 16.0488 66.3009 15.6693H66.2854C66.189 16.0473 66.0474 16.4846 65.8655 16.9812L64.6867 20.2219H67.8172L66.7037 16.9968V16.9984Z" fill="white"/>
<path id="Vector_13" d="M80.1105 24.2574L74.9148 17.3716C74.6348 16.9936 74.4109 16.6891 74.2445 16.4564C74.0765 16.2237 73.935 16.0004 73.8168 15.7833H73.7842C73.8168 16.1394 73.8324 16.5829 73.8324 17.1123V24.259H72.397V13.5812H73.865L78.8509 20.2078C79.1743 20.6404 79.4216 20.9777 79.5927 21.2198C79.7653 21.4634 79.9037 21.693 80.0126 21.9085H80.0452C80.0343 21.7039 80.0265 21.4869 80.0219 21.2604C80.0157 21.034 80.0126 20.7856 80.0126 20.5154V13.5812H81.4495V24.259H80.1105V24.2574Z" fill="white"/>
</g>
<g id="Group_3">
<path id="Vector_14" d="M11.6808 37.8042H10.5689L8.69648 32.5708C8.61095 32.3334 8.52231 32.0788 8.43055 31.8086C8.3388 31.5384 8.25015 31.2526 8.16462 30.9496H8.13196C7.94846 31.5556 7.77117 32.0897 7.6001 32.5536L5.66394 37.8042H4.55045L0.822754 27.078H2.40434L4.67953 33.981C4.77595 34.2622 4.86304 34.5323 4.93768 34.7916C5.01233 35.0508 5.08853 35.3148 5.16318 35.585H5.19584C5.27049 35.3367 5.35446 35.0805 5.44466 34.815C5.53642 34.5511 5.62973 34.2778 5.7277 33.9966L7.47102 29.152L6.74477 27.078H8.22994L10.5704 33.8842C10.6777 34.1872 10.7804 34.4699 10.8768 34.7354C10.9732 34.9993 11.0603 35.2617 11.135 35.5209H11.1676C11.2314 35.2508 11.3014 34.9884 11.3776 34.7354C11.4522 34.4824 11.5331 34.2137 11.6202 33.9326L13.8145 27.078H15.3152L11.6839 37.8042H11.6808Z" fill="white"/>
<path id="Vector_15" d="M22.8963 37.7558L21.8155 34.968H17.7006L16.7006 37.7558H15.2808L19.363 27.0452H20.2837L24.4297 37.7558H22.8963ZM20.2184 30.4967C20.0349 29.9891 19.9011 29.5471 19.8156 29.1676H19.8C19.7036 29.5456 19.5621 29.9829 19.3801 30.4795L18.2013 33.7202H21.3319L20.2184 30.4951V30.4967Z" fill="white"/>
<path id="Vector_16" d="M25.9136 37.7558V27.078H27.349V36.4767H31.3022V37.7574H25.9136V37.7558Z" fill="white"/>
<path id="Vector_17" d="M38.3052 37.7558L34.2229 32.9753H34.2074V37.7558H32.772V27.078H34.1918V31.8742H34.2229L38.0626 27.1108H39.7888L35.4655 32.3287L40.1449 37.7574H38.3052V37.7558Z" fill="white"/>
<path id="Vector_18" d="M41.6284 37.7558V27.078H47.0652L46.5971 28.3587H43.0638V31.6649H46.566V32.9284H43.0638V36.4767H47.0979V37.7574H41.6284V37.7558Z" fill="white"/>
<path id="Vector_19" d="M54.746 37.7557C53.8954 36.3736 53.2298 35.3038 52.7461 34.5479C52.2625 33.792 51.9126 33.3859 51.6979 33.3328H50.6327V37.7573H49.1973V27.0795H51.6171C52.2625 27.0795 52.813 27.1544 53.2718 27.3059C53.729 27.4574 54.1007 27.6683 54.3837 27.9369C54.6698 28.2071 54.8798 28.521 55.0135 28.8771C55.1488 29.2332 55.2157 29.6111 55.2157 30.0109C55.2157 30.3889 55.1582 30.7293 55.0462 31.0323C54.9327 31.3353 54.7834 31.6055 54.5952 31.8429C54.407 32.0803 54.1924 32.2864 53.9498 32.4582C53.7072 32.6316 53.4522 32.7659 53.1831 32.8627V32.8783C53.2795 32.933 53.4257 33.086 53.6186 33.3406C53.8114 33.5936 54.0462 33.9341 54.3199 34.362C54.5936 34.7884 54.9078 35.2913 55.2639 35.8691C55.6185 36.447 56.0057 37.0764 56.4256 37.7573H54.7476L54.746 37.7557ZM53.5999 29.483C53.5252 29.2613 53.4071 29.0676 53.2453 28.9005C53.0836 28.7334 52.8721 28.6006 52.6077 28.5038C52.3449 28.407 52.0183 28.3586 51.6311 28.3586H50.6311V32.1334H51.6793C51.9701 32.1334 52.2391 32.0818 52.4864 31.9787C52.7337 31.8757 52.9483 31.7351 53.1318 31.5571C53.3153 31.379 53.4568 31.1713 53.5595 30.9324C53.6621 30.695 53.7134 30.4404 53.7134 30.1718C53.7134 29.9344 53.6745 29.7048 53.5999 29.483Z" fill="white"/>
</g>
<path id="Vector_20" d="M0.926758 44.2668C2.40882 49.3582 10.7273 53.258 20.7658 53.258C30.8043 53.258 39.0777 49.3801 40.5924 44.3106" fill="white"/>
<path id="Vector_21" d="M0.926758 44.2668C2.40882 49.3582 10.7273 53.258 20.7658 53.258C30.8043 53.258 39.0777 49.3801 40.5924 44.3106L0.926758 44.2684V44.2668Z" stroke="white" stroke-width="0.25"/>
<path id="Vector_22" d="M42.3081 57.9901C43.7902 63.0815 52.1087 66.9812 62.1472 66.9812C72.1857 66.9812 80.4591 63.1034 81.9738 58.0323" fill="white"/>
<path id="Vector_23" d="M42.3081 57.9901C43.7902 63.0815 52.1087 66.9812 62.1472 66.9812C72.1857 66.9812 80.4591 63.1034 81.9738 58.0323L42.3081 57.9901Z" stroke="white" stroke-width="0.25"/>
</g>
<defs>
<clipPath id="clip0_2244_6195">
<rect width="82" height="67" fill="white"/>
</clipPath>
</defs>
</svg>
