<svg width="118" height="95" viewBox="0 0 118 95" fill="none" xmlns="http://www.w3.org/2000/svg">
<g id="SMW Logo" clip-path="url(#clip0_2480_74)">
<g id="Group">
<path id="Vector" d="M9.61104 13.085C9.35808 13.5832 9.00749 14.0128 8.5637 14.3716C8.11769 14.7303 7.59402 15.0071 6.98604 15.1976C6.38027 15.388 5.72346 15.4854 5.01784 15.4854C3.99047 15.4854 3.12287 15.3504 2.41725 15.0824C1.70941 14.8145 1.1347 14.5266 0.690918 14.221L1.61178 12.6354C1.93352 12.8812 2.3884 13.1248 2.96976 13.3706C3.55334 13.6164 4.21237 13.7382 4.94905 13.7382C5.2708 13.7382 5.60142 13.7006 5.9387 13.6231C6.27598 13.5456 6.58219 13.4194 6.85956 13.2444C7.1347 13.0695 7.36104 12.8458 7.53855 12.5779C7.71385 12.3099 7.8026 11.991 7.8026 11.6234C7.8026 11.0122 7.6029 10.4985 7.20349 10.0844C6.80408 9.67029 6.31814 9.29161 5.74121 8.94616C5.16429 8.60071 4.56296 8.25304 3.93278 7.90094C3.3026 7.54884 2.75897 7.11924 2.29743 6.61434C1.97568 6.26224 1.71828 5.86364 1.52746 5.41854C1.33441 4.97565 1.24121 4.46189 1.24121 3.87949C1.24121 3.3436 1.33885 2.8387 1.54077 2.36259C1.74047 1.8887 2.03559 1.4746 2.42834 1.1225C2.81888 0.770402 3.29817 0.493596 3.86621 0.29651C4.43426 0.097209 5.07775 -0.00244141 5.79891 -0.00244141C6.61104 -0.00244141 7.30556 0.0772789 7.88249 0.238934C8.45941 0.400589 8.92982 0.573316 9.29817 0.757116L9.27376 2.77891C8.81222 2.48882 8.28855 2.24744 7.70275 2.05478C7.11695 1.86213 6.50896 1.76691 5.87657 1.76691C5.16873 1.76691 4.55852 1.9197 4.0526 2.2253C3.54225 2.53089 3.28929 3.01364 3.28929 3.67355C3.28929 4.19395 3.45349 4.64126 3.78411 5.01772C4.11473 5.39418 4.52746 5.74185 5.02006 6.06294C5.51266 6.38404 6.05186 6.69849 6.63766 7.0063C7.22124 7.31189 7.76266 7.66399 8.25305 8.06259C8.74565 8.46119 9.15837 8.92844 9.48899 9.46434C9.81962 10.0002 9.98604 10.6513 9.98604 11.4175C9.98604 12.0309 9.85956 12.5845 9.6066 13.0828L9.61104 13.085Z" fill="white"/>
<path id="Vector_2" d="M12.4534 4.64147C12.8218 3.69147 13.3521 2.86548 14.0422 2.16129C14.7323 1.47259 15.5355 0.938911 16.4475 0.564668C17.3595 0.190426 18.3691 0.00219727 19.4741 0.00219727C20.6568 0.00219727 21.7308 0.208141 22.696 0.622244C23.6635 1.03635 24.4845 1.61653 25.1591 2.36723C25.7737 3.05593 26.2463 3.85756 26.5747 4.7677C26.9031 5.67784 27.0696 6.67213 27.0696 7.74171C27.0696 8.90651 26.8743 9.97388 26.4815 10.946C26.091 11.9182 25.5407 12.7508 24.8351 13.4395C24.145 14.0972 23.3506 14.6043 22.4542 14.9564C21.5555 15.3085 20.5614 15.4856 19.4719 15.4856C18.3824 15.4856 17.4505 15.324 16.5807 15.0029C15.7131 14.6818 14.9431 14.2146 14.2685 13.6011C13.5163 12.9125 12.9327 12.0687 12.5178 11.0745C12.1028 10.0802 11.8965 8.98402 11.8965 7.78821C11.8965 6.59241 12.0807 5.59147 12.449 4.64147H12.4534ZM24.5045 5.38774C24.2648 4.6614 23.9165 4.0325 23.4571 3.50325C22.9978 2.97399 22.432 2.56432 21.7663 2.27423C21.0984 1.98413 20.3351 1.83798 19.4764 1.83798C18.662 1.83798 17.9231 1.97527 17.2552 2.25208C16.5873 2.52889 16.0193 2.92306 15.5511 3.4346C15.0829 3.94835 14.7212 4.57283 14.4704 5.30802C14.2175 6.04322 14.091 6.86257 14.091 7.76607C14.091 8.66956 14.2175 9.48891 14.4704 10.2241C14.7234 10.9593 15.0829 11.5838 15.5511 12.0953C16.0193 12.6091 16.5873 13.0032 17.2552 13.2778C17.9231 13.5524 18.662 13.6919 19.4764 13.6919C20.2907 13.6919 21.0296 13.5546 21.6975 13.2778C22.3654 13.001 22.9335 12.6069 23.4017 12.0953C23.8699 11.5816 24.2315 10.9571 24.4845 10.2241C24.7375 9.48891 24.8639 8.66956 24.8639 7.76607C24.8639 6.90907 24.7441 6.1163 24.5067 5.38774H24.5045Z" fill="white"/>
<path id="Vector_3" d="M40.8624 15.2552L33.4489 5.49168C33.0495 4.95578 32.73 4.52396 32.4925 4.19401C32.2529 3.86406 32.051 3.54739 31.8823 3.23958H31.8357C31.8823 3.74448 31.9045 4.37338 31.9045 5.12408V15.2574H29.8564V0.11499H31.9511L39.065 9.51091C39.5266 10.1243 39.8794 10.6026 40.1235 10.9459C40.3698 11.2913 40.5672 11.6169 40.7226 11.9224H40.7692C40.7536 11.6324 40.7425 11.3245 40.7359 11.0035C40.727 10.6824 40.7226 10.3303 40.7226 9.94716V0.11499H42.7729V15.2552H40.8624Z" fill="white"/>
<path id="Vector_4" d="M57.4156 15.2552L50.0021 5.49168C49.6027 4.95578 49.2832 4.52396 49.0458 4.19401C48.8061 3.86406 48.6042 3.54739 48.4356 3.23958H48.389C48.4356 3.74448 48.4577 4.37338 48.4577 5.12408V15.2574H46.4097V0.11499H48.5043L55.6182 9.51091C56.0798 10.1243 56.4326 10.6026 56.6767 10.9459C56.923 11.2913 57.1205 11.6169 57.2758 11.9224H57.3224C57.3069 11.6324 57.2958 11.3245 57.2891 11.0035C57.2802 10.6824 57.2758 10.3303 57.2758 9.94716V0.11499H59.3261V15.2552H57.4156Z" fill="white"/>
</g>
<g id="Group_2">
<path id="Vector_5" d="M14.1574 34.3948V23.3668C14.1574 23.1365 14.1729 22.8464 14.204 22.4943H14.1796C14.0575 22.7999 13.9178 23.0812 13.7669 23.3336C13.6138 23.5861 13.474 23.8119 13.3519 24.0112L9.59749 29.9858H8.40148L4.3963 23.9891C4.27204 23.7898 4.14334 23.5794 4.00355 23.358C3.86598 23.1365 3.71953 22.8487 3.56642 22.4966H3.51982C3.56642 22.8487 3.59305 23.1365 3.60192 23.358C3.60858 23.5794 3.61302 23.8208 3.61302 24.0821V34.3992H1.56494V19.259H3.56642L8.17071 26.0818C8.38373 26.3874 8.55459 26.6487 8.67663 26.8635C8.79867 27.0783 8.9074 27.2931 8.99837 27.5057H9.04497C9.13817 27.3064 9.2358 27.096 9.34453 26.8745C9.45104 26.6531 9.6108 26.3807 9.82825 26.0596L14.1552 19.259H16.2033V34.3992H14.1552L14.1574 34.3948Z" fill="white"/>
<path id="Vector_6" d="M29.2372 34.3947L27.6951 30.4419H21.8238L20.397 34.3947H18.3711L24.1958 19.208H25.5094L31.4251 34.3947H29.2372ZM25.4162 24.1019C25.1544 23.3823 24.9635 22.7556 24.8415 22.2174H24.8193C24.6817 22.7533 24.4798 23.3734 24.2202 24.0776L22.5383 28.6726H27.005L25.4162 24.0997V24.1019Z" fill="white"/>
<path id="Vector_7" d="M41.945 34.3372C41.1928 34.5276 40.4495 34.6251 39.7128 34.6251C38.5634 34.6251 37.5293 34.4324 36.6174 34.0515C35.7054 33.6706 34.9288 33.137 34.2919 32.4549C33.6529 31.7729 33.1669 30.9646 32.8296 30.0301C32.4924 29.0956 32.3237 28.0858 32.3237 26.9963C32.3237 25.9068 32.5101 24.8682 32.8873 23.9182C33.2623 22.9682 33.7927 22.1378 34.4761 21.4247C35.1595 20.7117 35.9761 20.1536 36.928 19.7484C37.8799 19.3431 38.9384 19.1394 40.1055 19.1394C40.9798 19.1394 41.7475 19.228 42.4066 19.4029C43.0656 19.5801 43.5959 19.7816 43.9953 20.0119L43.9709 22.0337C43.3873 21.6816 42.8015 21.407 42.2091 21.2077C41.6188 21.0084 40.9088 20.9088 40.0789 20.9088C39.249 20.9088 38.448 21.0615 37.7668 21.3671C37.0833 21.6727 36.4998 22.0979 36.016 22.6427C35.5323 23.1874 35.164 23.8185 34.911 24.5382C34.658 25.2579 34.5316 26.033 34.5316 26.859C34.5316 27.685 34.6536 28.5065 34.8999 29.2262C35.144 29.9459 35.5057 30.5704 35.9805 31.0974C36.4554 31.6245 37.0279 32.0386 37.6958 32.3375C38.3637 32.6365 39.127 32.7849 39.9857 32.7849C40.647 32.7849 41.2794 32.6963 41.8851 32.5213C42.4909 32.3442 43.0634 32.1117 43.6004 31.8194L44.1995 33.4049C43.4472 33.8345 42.695 34.1445 41.9428 34.335L41.945 34.3372Z" fill="white"/>
<path id="Vector_8" d="M59.3505 34.3948V23.3668C59.3505 23.1365 59.366 22.8464 59.3971 22.4943H59.3727C59.2507 22.7999 59.1109 23.0812 58.96 23.3336C58.8069 23.5861 58.6671 23.8119 58.545 24.0112L54.7906 29.9858H53.5946L49.5894 23.9891C49.4652 23.7898 49.3365 23.5794 49.1967 23.358C49.0591 23.1365 48.9126 22.8487 48.7595 22.4966H48.7129C48.7595 22.8487 48.7862 23.1365 48.795 23.358C48.8017 23.5794 48.8061 23.8208 48.8061 24.0821V34.3992H46.7581V19.259H48.7595L53.3638 26.0818C53.5768 26.3874 53.7477 26.6487 53.8697 26.8635C53.9918 27.0783 54.1005 27.2931 54.1915 27.5057H54.2381C54.3313 27.3064 54.4289 27.096 54.5376 26.8745C54.6442 26.6531 54.8039 26.3807 55.0214 26.0596L59.3483 19.259H61.3964V34.3992H59.3483L59.3505 34.3948Z" fill="white"/>
<path id="Vector_9" d="M65.0354 34.3949V19.2546H67.0835V34.3949H65.0354Z" fill="white"/>
<path id="Vector_10" d="M70.7224 34.3949V19.2546H72.7705V32.5812H78.411V34.3971H70.7224V34.3949Z" fill="white"/>
<path id="Vector_11" d="M80.5059 34.3949V19.2546H82.5539V32.5812H88.1945V34.3971H80.5059V34.3949Z" fill="white"/>
<path id="Vector_12" d="M99.684 34.3947L98.1418 30.4419H92.2705L90.8438 34.3947H88.8179L94.6426 19.208H95.9562L101.872 34.3947H99.684ZM95.863 24.1019C95.6012 23.3823 95.4103 22.7556 95.2883 22.2174H95.2661C95.1285 22.7533 94.9266 23.3734 94.667 24.0776L92.985 28.6726H97.4517L95.863 24.0997V24.1019Z" fill="white"/>
<path id="Vector_13" d="M114.992 34.3948L107.579 24.6313C107.18 24.0954 106.86 23.6636 106.623 23.3336C106.383 23.0037 106.181 22.687 106.012 22.3792H105.966C106.012 22.8841 106.035 23.513 106.035 24.2637V34.397H103.987V19.2568H106.081L113.195 28.6528C113.657 29.2662 114.009 29.7445 114.254 30.0877C114.5 30.4332 114.697 30.7587 114.853 31.0643H114.899C114.884 30.7742 114.873 30.4664 114.866 30.1453C114.857 29.8242 114.853 29.4721 114.853 29.089V19.2568H116.903V34.397H114.992V34.3948Z" fill="white"/>
</g>
<g id="Group_3">
<path id="Vector_14" d="M17.3549 53.6029H15.7684L13.0968 46.1823C12.9747 45.8457 12.8483 45.4847 12.7173 45.1016C12.5864 44.7185 12.4599 44.3133 12.3379 43.8837H12.2913C12.0295 44.7429 11.7765 45.5002 11.5324 46.1579L8.76985 53.6029H7.18109L1.8623 38.394H4.11896L7.36526 48.1819C7.50284 48.5805 7.6271 48.9636 7.73361 49.3312C7.84012 49.6988 7.94884 50.0731 8.05535 50.4562H8.10195C8.20846 50.1041 8.32828 49.7409 8.45698 49.3644C8.5879 48.9902 8.72103 48.6027 8.86083 48.2041L11.3483 41.3348L10.312 38.394H12.4311L15.7706 48.0446C15.9237 48.4742 16.0701 48.875 16.2077 49.2515C16.3453 49.6257 16.4696 49.9978 16.5761 50.3654H16.6227C16.7136 49.9823 16.8135 49.6102 16.9222 49.2515C17.0287 48.8928 17.1441 48.5119 17.2684 48.1133L20.3993 38.394H22.5406L17.3593 53.6029H17.3549Z" fill="white"/>
<path id="Vector_15" d="M33.3578 53.5344L31.8157 49.5816H25.9444L24.5176 53.5344H22.4917L28.3164 38.3477H29.63L35.5457 53.5344H33.3578ZM29.5368 43.2416C29.275 42.5219 29.0842 41.8952 28.9621 41.3571H28.9399C28.8024 41.893 28.6004 42.513 28.3408 43.2172L26.6589 47.8122H31.1256L29.5368 43.2394V43.2416Z" fill="white"/>
<path id="Vector_16" d="M37.6626 53.5343V38.394H39.7107V51.7206H45.3512V53.5365H37.6626V53.5343Z" fill="white"/>
<path id="Vector_17" d="M55.343 53.5343L49.5183 46.7558H49.4961V53.5343H47.448V38.394H49.4739V45.1946H49.5183L54.9968 38.4405H57.4598L51.2912 45.839L57.968 53.5365H55.343V53.5343Z" fill="white"/>
<path id="Vector_18" d="M60.085 53.5343V38.394H67.8424L67.1745 40.2099H62.133V44.8979H67.1301V46.6894H62.133V51.7206H67.889V53.5365H60.085V53.5343Z" fill="white"/>
<path id="Vector_19" d="M78.8017 53.5345C77.5879 51.5747 76.6382 50.0578 75.9481 48.986C75.258 47.9142 74.7588 47.3384 74.4526 47.2632H72.9326V53.5367H70.8845V38.3965H74.3372C75.258 38.3965 76.0435 38.5028 76.6981 38.7176C77.3505 38.9324 77.8808 39.2313 78.2847 39.6122C78.693 39.9953 78.9925 40.4404 79.1833 40.9453C79.3764 41.4502 79.4718 41.9861 79.4718 42.553C79.4718 43.0889 79.3897 43.5717 79.2299 44.0013C79.068 44.4309 78.8549 44.814 78.5864 45.1506C78.318 45.4872 78.0117 45.7795 77.6656 46.0231C77.3194 46.2689 76.9555 46.4593 76.5717 46.5966V46.6187C76.7092 46.6963 76.9178 46.9133 77.193 47.2742C77.4681 47.633 77.8032 48.1157 78.1937 48.7225C78.5842 49.327 79.0324 50.0401 79.5406 50.8594C80.0465 51.6788 80.599 52.5712 81.1981 53.5367H78.8039L78.8017 53.5345ZM77.1663 41.8045C77.0598 41.4901 76.8912 41.2155 76.6604 40.9785C76.4296 40.7416 76.1279 40.5534 75.7506 40.4161C75.3756 40.2788 74.9097 40.2101 74.3572 40.2101H72.9304V45.5625H74.4259C74.8409 45.5625 75.2248 45.4894 75.5776 45.3432C75.9304 45.1971 76.2366 44.9978 76.4984 44.7453C76.7603 44.4929 76.9622 44.1983 77.1086 43.8595C77.2551 43.5229 77.3283 43.162 77.3283 42.7811C77.3283 42.4445 77.2728 42.119 77.1663 41.8045Z" fill="white"/>
</g>
<path id="Vector_20" d="M2.01099 62.7664C4.12563 69.9855 15.9947 75.515 30.3179 75.515C44.6412 75.515 56.4459 70.0165 58.6071 62.8284" fill="white"/>
<path id="Vector_21" d="M2.01099 62.7664C4.12563 69.9855 15.9947 75.515 30.3179 75.515C44.6412 75.515 56.4459 70.0165 58.6071 62.8284L2.01099 62.7686V62.7664Z" stroke="white" stroke-width="0.25"/>
<path id="Vector_22" d="M61.0547 82.2249C63.1693 89.444 75.0384 94.9735 89.3616 94.9735C103.685 94.9735 115.49 89.475 117.651 82.2846" fill="white"/>
<path id="Vector_23" d="M61.0547 82.2249C63.1693 89.444 75.0384 94.9735 89.3616 94.9735C103.685 94.9735 115.49 89.475 117.651 82.2846L61.0547 82.2249Z" stroke="white" stroke-width="0.25"/>
</g>
<defs>
<clipPath id="clip0_2480_74">
<rect width="117" height="95" fill="white" transform="translate(0.688477)"/>
</clipPath>
</defs>
</svg>
